<svg width="257" height="257" viewBox="0 0 257 257" fill="none" xmlns="http://www.w3.org/2000/svg">
<g filter="url(#filter0_d_9_576)">
<path d="M26.1722 118.175C26.1722 61.3311 72.253 15.25 129.096 15.25C185.926 15.25 232.195 61.6676 232.021 118.497C231.914 153.058 214.775 183.609 188.557 202.197C186.274 203.816 183.426 204.414 180.677 203.891C164.401 200.796 147.073 199.127 129.097 199.127C111.186 199.127 93.9174 200.784 77.6923 203.858C74.8434 204.397 71.8859 203.797 69.5227 202.116C43.287 183.463 26.1722 152.818 26.1722 118.175H26.1722Z" fill="#FF2EA6"/>
<path d="M212.859 118.175C212.859 164.436 175.357 201.938 129.097 201.938C82.8357 201.938 45.3339 164.436 45.3339 118.175C45.3339 71.9138 82.8357 34.4117 129.097 34.4117C175.357 34.4117 212.859 71.9138 212.859 118.175Z" fill="#FF50B5"/>
<path d="M194.878 63.4165L197.136 68.1707C197.216 68.338 197.35 68.4727 197.517 68.5519L202.272 70.8106C202.884 71.1013 202.884 71.9725 202.272 72.2632L197.517 74.5219C197.35 74.6015 197.216 74.7358 197.136 74.9031L194.878 79.6573C194.587 80.2693 193.716 80.2693 193.425 79.6573L191.166 74.9031C191.087 74.7358 190.952 74.6011 190.785 74.5219L186.031 72.2632C185.419 71.9725 185.419 71.1013 186.031 70.8106L190.785 68.5519C190.952 68.4723 191.087 68.338 191.166 68.1707L193.425 63.4165C193.716 62.8046 194.587 62.8046 194.878 63.4165Z" fill="#FF94D2"/>
<path d="M70.5342 135.865H199.857L187.771 165.736C186.708 168.365 185.901 171.066 185.349 173.804C185.242 174.335 183.067 175.324 182.979 175.856C182.21 180.53 182.178 185.291 182.877 189.963C182.963 190.534 185.137 190.646 185.245 191.214C185.947 194.929 187.115 198.575 188.749 202.061C171.921 214.049 151.332 221.1 129.097 221.1C106.861 221.1 70.5342 135.865 70.5342 135.865Z" fill="#2B3894"/>
<path d="M155.392 217.71C146.998 219.922 138.185 221.1 129.097 221.1C106.861 221.1 86.2721 214.049 69.444 202.06C71.0779 198.574 72.2467 194.929 72.9486 191.214C73.0568 190.641 75.5833 190.267 75.6693 189.691C76.3427 185.183 76.3347 180.593 75.6412 176.079C75.5346 175.385 72.9828 174.494 72.8437 173.804C72.2921 171.066 71.4848 168.365 70.4214 165.736L58.3362 135.865H80.278C87.1647 175.62 116.858 207.557 155.392 217.71Z" fill="#232E7A"/>
<path d="M72.8435 173.804C89.0119 174.951 108.336 176.074 129.097 176.074C149.857 176.074 169.181 174.951 185.35 173.804C184.191 179.555 184.159 185.468 185.245 191.214C169.098 194.482 149.812 196.834 129.097 196.834C108.381 196.834 89.0955 194.482 72.9484 191.214C74.034 185.468 74.0018 179.555 72.8435 173.804Z" fill="#3D4EC6"/>
<path d="M72.8435 173.804C79.9955 174.311 87.7647 174.814 96.0027 175.217C101.292 183.146 107.652 190.299 114.876 196.47C99.5676 195.689 85.3347 193.721 72.9484 191.214C74.034 185.468 74.0018 179.555 72.8435 173.804Z" fill="#3342AE"/>
<path d="M232.021 133.855C232.021 148.066 185.94 159.586 129.097 159.586C72.253 159.586 26.1722 148.066 26.1722 133.855C26.1722 119.644 72.253 108.124 129.097 108.124C185.94 108.124 232.021 119.644 232.021 133.855Z" fill="#3342AE"/>
<path d="M232.021 133.855C232.021 148.066 185.94 159.586 129.096 159.586C115.152 159.586 101.854 158.893 89.7267 157.637C85.2008 157.168 81.7673 153.346 81.7673 148.796C81.7673 143.194 86.887 138.976 92.379 140.078C102.433 142.096 115.201 143.303 129.096 143.303C161.515 143.303 187.796 136.733 187.796 128.628C187.796 120.524 161.515 113.953 129.096 113.953C112.475 113.953 97.4665 115.681 86.7869 118.456C84.2444 119.117 81.7673 117.186 81.7673 114.559C81.7673 112.52 83.2887 110.799 85.3138 110.561C98.5995 108.998 113.44 108.124 129.096 108.124C185.94 108.124 232.021 119.644 232.021 133.855Z" fill="#3D4EC6"/>
<path d="M187.795 128.628C187.795 132.456 181.934 135.941 172.334 138.554C161.605 141.474 146.206 136.706 129.096 136.706C111.987 136.706 96.5881 141.474 85.859 138.554C76.2585 135.941 70.3975 132.456 70.3975 128.628C70.3975 120.524 96.6777 113.953 129.096 113.953C161.515 113.953 187.795 120.524 187.795 128.628Z" fill="#1C314E"/>
<path d="M171.714 91.0366C171.714 108.467 152.633 122.598 129.096 122.598C105.56 122.598 86.4794 108.467 86.4794 91.0366C86.4794 83.4555 90.0886 76.4992 96.1036 71.0579C92.7143 62.8994 90.4999 50.2582 90.4999 39.373C90.4999 21.6092 96.3979 15.25 103.673 15.25C110.949 15.25 116.847 21.6092 116.847 39.373C116.847 46.5633 115.88 54.5195 114.248 61.444C118.872 60.1711 123.874 59.4756 129.096 59.4756C134.319 59.4756 139.321 60.1711 143.945 61.444C142.312 54.5195 141.346 46.5629 141.346 39.373C141.346 21.6092 147.244 15.25 154.519 15.25C161.795 15.25 167.693 21.6092 167.693 39.373C167.693 50.2582 165.479 62.8994 162.089 71.0579C168.104 76.4992 171.714 83.4555 171.714 91.0366Z" fill="#FFCD71"/>
<path d="M166.636 28.0099C164.624 41.7572 159.956 54.29 154.519 54.29C149.082 54.29 144.415 41.7576 142.403 28.0099C144.415 18.8017 149.082 15.25 154.52 15.25C159.957 15.25 164.624 18.8017 166.636 28.0099ZM103.674 15.25C98.2363 15.25 93.5689 18.8017 91.5566 28.0099C93.5685 41.7572 98.2363 54.29 103.674 54.29C109.111 54.29 113.778 41.7572 115.79 28.0099C113.779 18.8017 109.111 15.25 103.674 15.25V15.25Z" fill="#FFD993"/>
<path d="M171.714 91.0366C171.714 105.256 159.016 117.279 141.56 121.227C124.104 117.279 111.406 105.256 111.406 91.0366C111.406 77.5848 122.77 66.0986 138.776 61.5558C140.594 61.0396 142.526 61.0396 144.344 61.5558C160.35 66.0986 171.714 77.5848 171.714 91.0366Z" fill="#FFD993"/>
<path d="M172.334 138.553C161.605 141.473 146.206 143.303 129.096 143.303C111.987 143.303 96.5882 141.473 85.8591 138.553C91.5867 132.241 100.266 127.28 110.602 124.545V107.722H147.591V124.545C157.926 127.281 166.606 132.241 172.334 138.553Z" fill="#FFCD71"/>
<path d="M130.799 126.943C133.673 122.782 138.641 122.801 138.484 122.782C152.799 124.591 164.992 130.462 172.334 138.554C162.833 141.139 149.671 142.87 134.902 143.232C134.843 143.223 134.783 143.214 134.724 143.205C129.026 142.311 128.422 130.384 130.799 126.943Z" fill="#FFD993"/>
<path d="M108.994 159.988H104.974C100.533 159.988 96.9326 156.388 96.9326 151.947V139.261C96.9326 134.82 100.533 131.22 104.974 131.22H108.994C113.435 131.22 117.035 134.82 117.035 139.261V151.947C117.035 156.388 113.435 159.988 108.994 159.988Z" fill="#FFD993"/>
<path d="M161.26 139.261V151.947C161.26 156.388 157.66 159.988 153.219 159.988H149.199C144.758 159.988 141.158 156.388 141.158 151.947V139.261C141.158 134.82 144.758 131.22 149.199 131.22H153.219C157.66 131.22 161.26 134.82 161.26 139.261Z" fill="#FFE7C0"/>
<path d="M117.035 152.841C117.035 156.788 113.835 159.988 109.887 159.988H104.08C100.133 159.988 96.9326 156.788 96.9326 152.841C96.9326 147.906 100.933 143.906 105.867 143.906H108.101C113.035 143.906 117.035 147.906 117.035 152.841ZM152.326 143.906H150.092C145.158 143.906 141.158 147.906 141.158 152.841C141.158 156.788 144.358 159.988 148.306 159.988H154.113C158.06 159.988 161.26 156.788 161.26 152.841C161.26 147.906 157.26 143.906 152.326 143.906Z" fill="#FFF5F5"/>
<path d="M121.056 75.5576C121.056 77.7781 119.256 79.5781 117.035 79.5781C114.815 79.5781 113.015 77.7781 113.015 75.5576C113.015 73.3371 114.815 71.5371 117.035 71.5371C119.256 71.5371 121.056 73.3371 121.056 75.5576ZM141.158 71.5371C138.937 71.5371 137.137 73.3371 137.137 75.5576C137.137 77.7781 138.937 79.5781 141.158 79.5781C143.378 79.5781 145.178 77.7781 145.178 75.5576C145.178 73.3371 143.378 71.5371 141.158 71.5371Z" fill="#1C314E"/>
<path d="M167.693 101.691C167.693 111.683 158.333 119.783 146.787 119.783C141.383 119.783 136.458 118.009 132.748 115.097C130.598 113.41 127.595 113.41 125.446 115.097C121.735 118.009 116.81 119.783 111.406 119.783C99.86 119.783 90.4999 111.683 90.4999 101.691C90.4999 91.6987 99.86 83.5986 111.406 83.5986C118.855 83.5986 125.393 86.9694 129.097 92.0445C132.8 86.9694 139.338 83.5986 146.787 83.5986C158.333 83.5986 167.693 91.6987 167.693 101.691Z" fill="#FFE7C0"/>
<path d="M166.865 96.6303C164.335 104.16 156.304 109.662 146.787 109.662C141.383 109.662 136.458 107.888 132.748 104.976C130.598 103.289 127.595 103.289 125.446 104.976C121.735 107.888 116.81 109.662 111.407 109.662C101.89 109.662 93.8587 104.16 91.329 96.6303C93.8583 89.1011 101.89 83.5986 111.406 83.5986C118.855 83.5986 125.393 86.9694 129.097 92.0445C132.8 86.9694 139.338 83.5986 146.787 83.5986C156.303 83.5986 164.335 89.1011 166.865 96.6303Z" fill="#FFF5F5"/>
<path d="M108.994 43.3936C108.994 52.2753 106.294 59.4756 102.963 59.4756C99.6328 59.4756 96.9326 52.2753 96.9326 43.3936C96.9326 34.5119 99.6328 27.3115 102.963 27.3115C106.294 27.3115 108.994 34.5119 108.994 43.3936ZM155.23 27.3115C151.899 27.3115 149.199 34.5119 149.199 43.3936C149.199 52.2753 151.899 59.4756 155.23 59.4756C158.56 59.4756 161.26 52.2753 161.26 43.3936C161.26 34.5119 158.56 27.3115 155.23 27.3115Z" fill="#FFB655"/>
<path d="M136.653 104.937C134.569 107.02 131.833 108.062 129.097 108.062C126.36 108.062 123.624 107.02 121.54 104.937C120.706 104.102 120.706 102.749 121.54 101.914C122.375 101.08 123.728 101.08 124.563 101.914C125.296 102.647 126.163 103.165 127.086 103.468V87.6191C127.086 86.5091 127.986 85.6089 129.097 85.6089C130.207 85.6089 131.107 86.5091 131.107 87.6191V103.468C132.03 103.165 132.897 102.647 133.63 101.914C134.465 101.08 135.818 101.08 136.653 101.914C137.487 102.749 137.487 104.102 136.653 104.937ZM178.241 93.586C179.254 93.1317 179.707 91.942 179.253 90.9292C178.799 89.9165 177.609 89.4629 176.597 89.9173C167.604 93.949 152.974 93.9494 143.982 89.9173C142.968 89.4634 141.779 89.9165 141.325 90.9292C140.871 91.9424 141.324 93.1317 142.337 93.586C147.371 95.8431 153.83 96.9716 160.289 96.9716C166.749 96.9716 173.208 95.8431 178.241 93.586ZM174.668 110.612C175.77 110.472 176.549 109.466 176.41 108.365C176.27 107.263 175.264 106.485 174.163 106.623C164.385 107.862 150.389 103.603 142.961 97.1281C142.124 96.3983 140.854 96.4856 140.125 97.3222C139.395 98.1593 139.482 99.429 140.319 100.159C147.637 106.538 160.198 110.858 170.565 110.858C171.98 110.858 173.354 110.778 174.668 110.612ZM115.856 93.586C116.869 93.1317 117.322 91.942 116.868 90.9292C116.414 89.9161 115.224 89.4629 114.211 89.9173C105.22 93.9498 90.5891 93.9494 81.5969 89.9173C80.5833 89.4634 79.3945 89.9165 78.9401 90.9292C78.4858 91.9424 78.9389 93.1317 79.9521 93.586C84.9858 95.8431 91.4451 96.9716 97.9044 96.9716C104.364 96.9716 110.823 95.8431 115.856 93.586ZM117.874 100.159C118.711 99.4294 118.798 98.1593 118.068 97.3222C117.339 96.4856 116.069 96.3987 115.232 97.1281C107.804 103.603 93.8075 107.864 84.0305 106.623C82.9301 106.483 81.923 107.263 81.7834 108.365C81.6439 109.466 82.4235 110.472 83.5251 110.612C84.8398 110.778 86.2124 110.858 87.6276 110.858C97.9952 110.858 110.557 106.537 117.874 100.159Z" fill="#FFB655"/>
<path d="M135.174 83.9195C137.537 84.2134 138.769 86.8786 137.474 88.8772C135.697 91.6187 133.653 94.1706 131.378 96.4956C130.131 97.7701 128.062 97.7701 126.815 96.4956C124.54 94.1706 122.496 91.6187 120.72 88.8772C119.425 86.8786 120.656 84.2134 123.019 83.9195C125.01 83.6718 127.039 83.5444 129.097 83.5444C131.155 83.5444 133.183 83.6718 135.174 83.9195Z" fill="#F76937"/>
<path d="M131.919 95.9331C129.86 93.7608 127.999 91.3992 126.365 88.8771C125.07 86.8785 126.302 84.2134 128.665 83.9195C129.739 83.786 130.825 83.6875 131.919 83.6248C133.014 83.6875 134.1 83.7856 135.174 83.9195C137.537 84.2134 138.769 86.8785 137.474 88.8771C135.84 91.3996 133.978 93.7608 131.919 95.9331Z" fill="#FF7C48"/>
<path d="M54.6396 82.8999L56.8983 87.6542C56.9779 87.8214 57.1122 87.9561 57.2795 88.0353L62.0337 90.294C62.6456 90.5847 62.6456 91.456 62.0337 91.7466L57.2795 94.0054C57.1122 94.085 56.9775 94.2192 56.8983 94.3865L54.6396 99.1407C54.3489 99.7527 53.4777 99.7527 53.187 99.1407L50.9283 94.3865C50.8487 94.2192 50.7144 94.0846 50.5471 94.0054L45.7929 91.7466C45.181 91.456 45.181 90.5847 45.7929 90.294L50.5471 88.0353C50.7144 87.9557 50.8491 87.8214 50.9283 87.6542L53.187 82.8999C53.4781 82.288 54.3489 82.288 54.6396 82.8999Z" fill="#FFCD71"/>
<path d="M223.658 95.7675L218.903 98.0262C218.736 98.1058 218.601 98.2401 218.522 98.4074L216.264 103.162C215.973 103.774 215.102 103.774 214.811 103.162L212.552 98.4074C212.473 98.2401 212.338 98.1054 212.171 98.0262L207.417 95.7675C206.805 95.4768 206.805 94.6056 207.417 94.3149L212.171 92.0562C212.338 91.9766 212.473 91.8423 212.552 91.675L214.811 86.9208C215.102 86.3089 215.973 86.3089 216.264 86.9208L218.522 91.675C218.602 91.8423 218.736 91.977 218.903 92.0562L223.658 94.3149C224.27 94.6056 224.27 95.4764 223.658 95.7675Z" fill="#FFB52D"/>
<path d="M62.6806 107.24L64.9393 111.994C65.0189 112.162 65.1532 112.296 65.3205 112.375L70.0747 114.634C70.6866 114.925 70.6866 115.796 70.0747 116.087L65.3205 118.345C65.1532 118.425 65.0185 118.559 64.9393 118.727L62.6806 123.481C62.3899 124.093 61.5187 124.093 61.228 123.481L58.9693 118.727C58.8897 118.559 58.7554 118.425 58.5882 118.345L53.8339 116.087C53.222 115.796 53.222 114.925 53.8339 114.634L58.5882 112.375C58.7554 112.296 58.8901 112.162 58.9693 111.994L61.228 107.24C61.5191 106.628 62.3899 106.628 62.6806 107.24ZM199.131 104.024L195.448 111.776C195.368 111.943 195.234 112.078 195.067 112.157L187.314 115.84C186.702 116.131 186.702 117.002 187.314 117.293L195.067 120.976C195.234 121.056 195.369 121.19 195.448 121.357L199.131 129.11C199.422 129.722 200.293 129.722 200.583 129.11L204.267 121.357C204.346 121.19 204.481 121.055 204.648 120.976L212.4 117.293C213.012 117.002 213.012 116.131 212.4 115.84L204.648 112.157C204.481 112.078 204.346 111.943 204.267 111.776L200.583 104.024C200.292 103.412 199.422 103.412 199.131 104.024Z" fill="#FFF5F5"/>
</g>
<defs>
<filter id="filter0_d_9_576" x="0.172241" y="0.25" width="255.849" height="255.85" filterUnits="userSpaceOnUse" color-interpolation-filters="sRGB">
<feFlood flood-opacity="0" result="BackgroundImageFix"/>
<feColorMatrix in="SourceAlpha" type="matrix" values="0 0 0 0 0 0 0 0 0 0 0 0 0 0 0 0 0 0 127 0" result="hardAlpha"/>
<feOffset dx="-1" dy="10"/>
<feGaussianBlur stdDeviation="12.5"/>
<feColorMatrix type="matrix" values="0 0 0 0 0 0 0 0 0 0 0 0 0 0 0 0 0 0 0.25 0"/>
<feBlend mode="normal" in2="BackgroundImageFix" result="effect1_dropShadow_9_576"/>
<feBlend mode="normal" in="SourceGraphic" in2="effect1_dropShadow_9_576" result="shape"/>
</filter>
</defs>
</svg>
