<svg width="44" height="43" viewBox="0 0 44 43" fill="none" xmlns="http://www.w3.org/2000/svg">
<path d="M39.9179 14.697C37.7499 12.1638 34.7777 10.7688 31.5486 10.7688C28.4451 10.7688 26.3141 12.819 25.0228 13.4718V10.8058C25.0228 8.46861 26.1335 6.27073 28.15 4.61731C29.3248 3.6546 29.3251 2.09653 28.1501 1.13366C26.9757 0.170957 25.0744 0.170628 23.8995 1.13358C21.5653 3.04658 20.0086 5.42661 19.3572 8.01629C17.1253 4.75568 12.8664 2.54696 7.9893 2.54696H5.98535C5.97934 2.54696 5.97353 2.54762 5.96751 2.5477C5.41182 2.55558 4.98297 2.93071 4.98337 3.36858V5.01058C4.98337 7.5059 6.01801 9.86483 7.92117 11.7654C6.03364 12.637 4.40994 14.0464 3.1744 15.8996C1.7564 18.0263 0.975464 20.6066 0.975464 23.1649C0.975464 26.8347 2.59656 31.6331 5.10541 35.3895C8.14942 39.9473 12.0281 42.4573 16.0271 42.4573C16.7627 42.4573 19.0855 41.7436 19.8313 41.3389C20.9023 40.7584 21.8459 40.9543 22.1111 40.9295C22.8261 40.8627 23.5552 41.0082 24.164 41.3386C24.9102 41.7436 27.2337 42.4573 27.9696 42.4573C31.9686 42.4573 35.8473 39.9472 38.8913 35.3895C41.4001 31.6331 43.0212 26.8346 43.0212 23.1649C43.0211 20.0876 41.8901 17.0011 39.9179 14.697ZM25.3165 2.29485C25.7078 1.97417 26.3412 1.97384 26.7331 2.29493C27.1238 2.61528 27.1256 3.13404 26.7328 3.45604C24.3379 5.41995 23.0189 8.03008 23.0189 10.8058V14.0395C22.3555 14.1289 21.6796 14.1307 21.0149 14.0447C21.0148 13.0673 21.0148 11.7842 21.0148 10.8058C21.0149 7.5909 22.5425 4.56828 25.3165 2.29485ZM6.99604 5.35787L11.2886 8.87601C11.6801 9.19669 12.3142 9.19661 12.7057 8.87601C13.097 8.55533 13.097 8.03534 12.7057 7.71457L8.41334 4.1966C14.2949 4.37998 19.0109 8.35799 19.0109 13.2225V13.4913C17.1449 12.5775 14.8907 9.84241 9.85468 11.0878C8.09611 9.50752 7.09404 7.50057 6.99604 5.35787ZM37.1332 34.601C35.5863 36.9174 32.344 40.8001 27.9942 40.8148C27.5634 40.7698 25.7948 40.254 25.2702 39.9692C24.3011 39.4433 23.1428 39.2031 21.9975 39.2881C20.8523 39.2036 19.6951 39.4434 18.725 39.9692C18.2003 40.254 16.4324 40.7698 16.002 40.8148C11.6521 40.8001 8.41003 36.9172 6.86298 34.601C4.50362 31.0683 2.97912 26.5794 2.97912 23.1649C2.97932 18.4249 5.90299 14.0656 9.93103 12.7994C9.93113 12.7994 9.93113 12.7993 9.93123 12.7993C10.741 12.5446 11.5888 12.4141 12.4511 12.4112C12.4564 12.4112 12.4615 12.4112 12.4667 12.4112C14.9121 12.4112 16.6931 14.3815 18.2442 15.0195C20.6056 15.9893 23.3684 16.0007 25.7512 15.0193C27.3005 14.3827 29.0932 12.4112 31.5484 12.4112C34.1055 12.4112 36.4952 13.558 38.2771 15.6401C40.0183 17.6745 41.017 20.4173 41.017 23.1649C41.0171 26.5794 39.4926 31.0683 37.1332 34.601Z" fill="black"/>
</svg>
