<svg width="154" height="57" viewBox="0 0 154 57" fill="none" xmlns="http://www.w3.org/2000/svg">
<path d="M41.0869 21.2202C43.5913 21.3988 45.7566 19.6501 45.9232 17.3142C46.0898 14.9783 44.1947 12.9399 41.6902 12.7613C39.1858 12.5826 37.0205 14.3314 36.8539 16.6673C36.6873 19.0032 38.5824 21.0416 41.0869 21.2202Z" fill="#E2526D"/>
<path d="M45.9201 17.3146C45.8723 17.983 45.6557 18.6297 45.288 19.202C44.9203 19.7744 44.412 20.2561 43.8046 20.608C44.0372 20.1497 44.1734 19.6532 44.2059 19.1453C44.2625 18.3646 44.0863 17.5823 43.6966 16.8852C43.307 16.1881 42.7191 15.6035 41.9983 15.1961C41.2775 14.7887 40.4518 14.5746 39.6129 14.5773C38.774 14.5801 37.9545 14.7996 37.2455 15.2117C37.6819 14.3083 38.4464 13.58 39.4052 13.1544C40.3639 12.7288 41.4558 12.6329 42.4898 12.8836C43.5238 13.1342 44.434 13.7155 45.0611 14.5255C45.6882 15.3356 45.9923 16.3229 45.9201 17.3146Z" fill="#D14A5E"/>
<path d="M41.0617 21.5735C40.0899 21.5042 39.1591 21.1676 38.387 20.6064C37.6149 20.0452 37.0362 19.2846 36.724 18.4207C36.4119 17.5568 36.3803 16.6284 36.6333 15.753C36.8863 14.8775 37.4125 14.0943 38.1453 13.5024C38.8782 12.9105 39.7848 12.5365 40.7506 12.4277C41.7163 12.3188 42.6978 12.48 43.5708 12.8909C44.4439 13.3018 45.1694 13.944 45.6555 14.7361C46.1417 15.5282 46.3667 16.4348 46.302 17.3412C46.2137 18.556 45.6125 19.6838 44.6301 20.4773C43.6477 21.2707 42.3644 21.6649 41.0617 21.5735ZM41.665 13.1145C40.8431 13.0559 40.0233 13.2259 39.3095 13.6031C38.5957 13.9803 38.0199 14.5477 37.6548 15.2335C37.2897 15.9194 37.1518 16.6929 37.2586 17.4562C37.3653 18.2196 37.7118 18.9385 38.2544 19.522C38.7969 20.1056 39.5111 20.5275 40.3066 20.7346C41.1021 20.9417 41.9432 20.9245 42.7235 20.6853C43.5038 20.4461 44.1883 19.9956 44.6905 19.3907C45.1926 18.7858 45.4898 18.0538 45.5445 17.2872C45.6166 16.2594 45.2486 15.2429 44.5213 14.4606C43.794 13.6783 42.7668 13.1943 41.665 13.1145Z" fill="#323C6B"/>
<path d="M24.9365 44.1212C27.5849 44.31 29.8746 42.4608 30.0508 39.9907C30.227 37.5206 28.2229 35.365 25.5745 35.1761C22.9262 34.9872 20.6364 36.8365 20.4603 39.3066C20.2841 41.7767 22.2882 43.9323 24.9365 44.1212Z" fill="#E2526D"/>
<path d="M21.0592 42.0536C20.6635 41.4691 20.4207 40.8069 20.3505 40.1211C20.2803 39.4353 20.3848 38.7454 20.6554 38.1076C20.7623 38.6218 20.9733 39.1131 21.277 39.5552C21.7381 40.2394 22.3921 40.7928 23.1664 41.154C23.9407 41.5152 24.805 41.67 25.6633 41.6012C26.5215 41.5325 27.3403 41.2428 28.0285 40.7644C28.7167 40.286 29.2475 39.6377 29.562 38.8913C29.7927 39.8931 29.639 40.9353 29.1278 41.835C28.6165 42.7348 27.7804 43.4347 26.766 43.8119C25.7516 44.1892 24.6238 44.2198 23.5803 43.8982C22.5368 43.5767 21.6443 42.9237 21.0592 42.0536Z" fill="#D14A5E"/>
<path d="M24.9113 44.4751C23.888 44.4022 22.9078 44.0478 22.0947 43.4568C21.2817 42.8659 20.6723 42.0649 20.3436 41.1551C20.0149 40.2454 19.9816 39.2678 20.248 38.3459C20.5144 37.4241 21.0685 36.5993 21.8403 35.976C22.612 35.3527 23.5667 34.9589 24.5837 34.8443C25.6006 34.7297 26.6341 34.8994 27.5535 35.3321C28.4729 35.7648 29.2369 36.441 29.7488 37.2751C30.2607 38.1093 30.4976 39.0639 30.4296 40.0184C30.3367 41.2977 29.7036 42.4854 28.6691 43.3209C27.6346 44.1564 26.2831 44.5715 24.9113 44.4751ZM25.5494 35.5294C24.6759 35.4671 23.8048 35.6478 23.0462 36.0486C22.2877 36.4494 21.6757 37.0523 21.2877 37.7811C20.8998 38.5099 20.7532 39.3319 20.8665 40.143C20.9799 40.9542 21.3481 41.7182 21.9246 42.3384C22.5011 42.9585 23.26 43.407 24.1053 43.6272C24.9506 43.8473 25.8444 43.8291 26.6737 43.575C27.5029 43.3209 28.2304 42.8423 28.7641 42.1996C29.2978 41.5569 29.6137 40.779 29.672 39.9644C29.7489 38.872 29.358 37.7914 28.5851 36.9598C27.8122 36.1282 26.7205 35.6135 25.5494 35.5287L25.5494 35.5294Z" fill="#323C6B"/>
<path d="M28.7728 38.9181C31.4212 39.107 33.7109 37.2577 33.8871 34.7876C34.0633 32.3175 32.0592 30.1619 29.4108 29.973C26.7625 29.7841 24.4727 31.6334 24.2965 34.1035C24.1203 36.5736 26.1244 38.7292 28.7728 38.9181Z" fill="#E2526D"/>
<path d="M30.8981 12.3445C30.802 12.3378 30.7118 12.2973 30.6458 12.2311C30.5798 12.165 30.543 12.0781 30.5428 11.9882C30.5337 5.60466 35.6682 4.29706 35.7194 4.28437C35.8155 4.26376 35.9169 4.27906 36.0018 4.32702C36.0868 4.37497 36.1487 4.4518 36.1744 4.54115C36.2001 4.6305 36.1875 4.72533 36.1393 4.80546C36.0911 4.8856 36.0111 4.94471 35.9164 4.97023C35.7281 5.01645 31.2934 6.173 31.3038 11.9942C31.3039 12.0407 31.2942 12.0867 31.2752 12.1296C31.2562 12.1724 31.2283 12.2113 31.1931 12.2439C31.1579 12.2766 31.116 12.3024 31.07 12.3198C31.0239 12.3373 30.9746 12.346 30.9247 12.3456L30.8981 12.3445Z" fill="#323C6B"/>
<path d="M29.4125 38.9161C28.695 38.9389 27.9803 38.8029 27.3266 38.5193C26.6729 38.2357 26.0988 37.8126 25.6511 37.2844C26.1671 37.4541 26.7121 37.5306 27.2568 37.5097C28.095 37.4838 28.9069 37.2416 29.6024 36.8101C30.2979 36.3785 30.8498 35.7744 31.197 35.0648C31.5442 34.3551 31.673 33.5676 31.5693 32.7897C31.4655 32.0117 31.1332 31.2736 30.6092 30.6572C31.6238 30.9713 32.4913 31.6074 33.0597 32.4542C33.6282 33.3009 33.8614 34.3044 33.7186 35.2889C33.5758 36.2734 33.066 37.1762 32.2785 37.8393C31.491 38.5024 30.4759 38.8836 29.411 38.916L29.4125 38.9161Z" fill="#D14A5E"/>
<path d="M28.7475 39.272C27.7242 39.1991 26.744 38.8447 25.931 38.2537C25.118 37.6628 24.5085 36.8618 24.1798 35.952C23.8511 35.0423 23.8179 34.0647 24.0843 33.1428C24.3507 32.221 24.9048 31.3962 25.6765 30.7729C26.4483 30.1497 27.403 29.7558 28.4199 29.6412C29.4369 29.5266 30.4704 29.6963 31.3898 30.129C32.3092 30.5617 33.0731 31.2379 33.5851 32.072C34.097 32.9062 34.3339 33.8608 34.2658 34.8153C34.1729 36.0946 33.5398 37.2823 32.5053 38.1178C31.4708 38.9533 30.1194 39.3684 28.7475 39.272ZM29.3856 30.3263C28.5121 30.264 27.6411 30.4447 26.8825 30.8455C26.1239 31.2463 25.512 31.8492 25.124 32.578C24.736 33.3068 24.5894 34.1288 24.7028 34.9399C24.8162 35.7511 25.1844 36.5151 25.7609 37.1353C26.3373 37.7554 27.0962 38.2039 27.9416 38.4241C28.7869 38.6442 29.6807 38.626 30.5099 38.3719C31.3392 38.1178 32.0667 37.6392 32.6004 36.9965C33.134 36.3538 33.45 35.5759 33.5083 34.7613C33.585 33.669 33.194 32.5886 32.4211 31.7572C31.6482 30.9257 30.5565 30.4111 29.3856 30.3263Z" fill="#323C6B"/>
<path d="M19.2824 20.2942C21.7868 20.4728 23.9522 18.724 24.1188 16.3881C24.2854 14.0523 22.3902 12.0139 19.8858 11.8352C17.3813 11.6566 15.216 13.4054 15.0494 15.7412C14.8828 18.0771 16.778 20.1155 19.2824 20.2942Z" fill="#E2526D"/>
<path d="M24.0708 16.4302C24.023 17.0985 23.8064 17.7452 23.4387 18.3175C23.071 18.8899 22.5627 19.3717 21.9553 19.7235C22.1879 19.2652 22.3241 18.7687 22.3565 18.2608C22.4137 17.4799 22.2377 16.6974 21.8483 16C21.4588 15.3027 20.871 14.7177 20.1501 14.3101C19.4293 13.9024 18.6034 13.6881 17.7643 13.6907C16.9252 13.6934 16.1056 13.9129 15.3963 14.3251C15.8328 13.4217 16.5973 12.6934 17.556 12.2678C18.5147 11.8422 19.6067 11.7463 20.6406 11.997C21.6746 12.2476 22.5848 12.8289 23.212 13.6389C23.8391 14.449 24.1432 15.4363 24.071 16.4281L24.0708 16.4302Z" fill="#967895"/>
<path d="M24.0708 16.4302C24.023 17.0985 23.8064 17.7452 23.4387 18.3175C23.071 18.8899 22.5627 19.3717 21.9553 19.7235C22.1879 19.2652 22.3241 18.7687 22.3565 18.2608C22.4137 17.4799 22.2377 16.6974 21.8483 16C21.4588 15.3027 20.871 14.7177 20.1501 14.3101C19.4293 13.9024 18.6034 13.6881 17.7643 13.6907C16.9252 13.6934 16.1056 13.9129 15.3963 14.3251C15.8328 13.4217 16.5973 12.6934 17.556 12.2678C18.5147 11.8422 19.6067 11.7463 20.6406 11.997C21.6746 12.2476 22.5848 12.8289 23.212 13.6389C23.8391 14.449 24.1432 15.4363 24.071 16.4281L24.0708 16.4302Z" fill="#D14A5E"/>
<path d="M19.2572 20.6474C18.2854 20.5781 17.3546 20.2416 16.5825 19.6804C15.8104 19.1192 15.2317 18.3585 14.9195 17.4946C14.6074 16.6307 14.5758 15.7023 14.8288 14.8269C15.0818 13.9515 15.608 13.1683 16.3409 12.5764C17.0737 11.9845 17.9804 11.6105 18.9461 11.5016C19.9118 11.3928 20.8933 11.554 21.7664 11.9649C22.6394 12.3758 23.3649 13.0179 23.8511 13.81C24.3372 14.6022 24.5622 15.5088 24.4975 16.4151C24.4095 17.6301 23.8082 18.758 22.8258 19.5514C21.8434 20.3449 20.56 20.739 19.2572 20.6474ZM19.8605 12.1885C19.0386 12.1299 18.2189 12.2999 17.505 12.6771C16.7912 13.0542 16.2154 13.6216 15.8503 14.3075C15.4852 14.9933 15.3473 15.7668 15.4541 16.5302C15.5608 17.2935 15.9073 18.0124 16.4499 18.596C16.9924 19.1795 17.7066 19.6015 18.5021 19.8086C19.2976 20.0156 20.1387 19.9985 20.919 19.7592C21.6993 19.52 22.3839 19.0695 22.886 18.4646C23.3881 17.8598 23.6853 17.1277 23.74 16.3611C23.8121 15.3333 23.4441 14.3168 22.7168 13.5345C21.9895 12.7523 20.9623 12.2682 19.8605 12.1885Z" fill="#323C6B"/>
<path d="M27.0418 19.6538C29.5463 19.8325 31.7116 18.0837 31.8782 15.7478C32.0448 13.4119 30.1496 11.3735 27.6452 11.1949C25.1407 11.0163 22.9754 12.7651 22.8088 15.1009C22.6422 17.4368 24.5374 19.4752 27.0418 19.6538Z" fill="#E2526D"/>
<path d="M31.9959 15.7527C31.948 16.421 31.7314 17.0677 31.3637 17.64C30.9961 18.2124 30.4878 18.6942 29.8803 19.046C30.1129 18.5877 30.2491 18.0912 30.2816 17.5833C30.3383 16.8026 30.162 16.0203 29.7724 15.3232C29.3827 14.6261 28.7949 14.0415 28.074 13.6341C27.3532 13.2268 26.5276 13.0126 25.6886 13.0153C24.8497 13.0181 24.0303 13.2377 23.3212 13.6497C23.7577 12.7463 24.5221 12.018 25.4809 11.5924C26.4396 11.1668 27.5315 11.0709 28.5655 11.3216C29.5995 11.5722 30.5097 12.1535 31.1368 12.9635C31.764 13.7736 32.068 14.7609 31.9959 15.7527Z" fill="#967895"/>
<path d="M31.9959 15.7527C31.948 16.421 31.7314 17.0677 31.3637 17.64C30.9961 18.2124 30.4878 18.6942 29.8803 19.046C30.1129 18.5877 30.2491 18.0912 30.2816 17.5833C30.3383 16.8026 30.162 16.0203 29.7724 15.3232C29.3827 14.6261 28.7949 14.0415 28.074 13.6341C27.3532 13.2268 26.5276 13.0126 25.6886 13.0153C24.8497 13.0181 24.0303 13.2377 23.3212 13.6497C23.7577 12.7463 24.5221 12.018 25.4809 11.5924C26.4396 11.1668 27.5315 11.0709 28.5655 11.3216C29.5995 11.5722 30.5097 12.1535 31.1368 12.9635C31.764 13.7736 32.068 14.7609 31.9959 15.7527Z" fill="#D14A5E"/>
<path d="M27.0166 20.0071C26.0448 19.9379 25.1139 19.6015 24.3417 19.0404C23.5695 18.4793 22.9907 17.7187 22.6784 16.8548C22.3661 15.9909 22.3344 15.0625 22.5874 14.187C22.8403 13.3115 23.3664 12.5282 24.0993 11.9363C24.8321 11.3443 25.7387 10.9702 26.7045 10.8613C27.6703 10.7524 28.6518 10.9136 29.5249 11.3245C30.398 11.7353 31.1235 12.3775 31.6097 13.1696C32.0959 13.9618 32.3209 14.8684 32.2562 15.7748C32.168 16.9895 31.5668 18.1172 30.5846 18.9106C29.6024 19.704 28.3193 20.0983 27.0166 20.0071ZM27.62 11.5482C26.798 11.4894 25.9782 11.6593 25.2643 12.0364C24.5504 12.4135 23.9744 12.9808 23.6092 13.6666C23.2441 14.3525 23.1061 15.126 23.2127 15.8894C23.3193 16.6527 23.6658 17.3717 24.2083 17.9553C24.7509 18.5389 25.465 18.961 26.2605 19.1681C27.0561 19.3753 27.8972 19.3581 28.6775 19.1189C29.4579 18.8798 30.1425 18.4292 30.6446 17.8244C31.1468 17.2195 31.444 16.4874 31.4987 15.7208C31.5708 14.6931 31.2029 13.6767 30.4758 12.8945C29.7486 12.1122 28.7216 11.6281 27.62 11.5482Z" fill="#323C6B"/>
<path d="M33.6151 20.1227C36.1195 20.3013 38.2848 18.5525 38.4514 16.2167C38.6181 13.8808 36.7229 11.8424 34.2184 11.6637C31.714 11.4851 29.5487 13.2339 29.3821 15.5698C29.2155 17.9056 31.1107 19.944 33.6151 20.1227Z" fill="#E2526D"/>
<path d="M38.5055 16.217C38.4576 16.8853 38.241 17.532 37.8733 18.1043C37.5057 18.6767 36.9974 19.1584 36.3899 19.5103C36.6225 19.052 36.7587 18.5555 36.7912 18.0476C36.8479 17.2669 36.6716 16.4846 36.282 15.7875C35.8923 15.0904 35.3045 14.5058 34.5836 14.0984C33.8628 13.6911 33.0372 13.4769 32.1982 13.4796C31.3593 13.4824 30.5399 13.702 29.8308 14.114C30.2672 13.2106 31.0317 12.4823 31.9905 12.0567C32.9492 11.6311 34.0411 11.5352 35.0751 11.7859C36.1091 12.0365 37.0193 12.6178 37.6464 13.4278C38.2736 14.2379 38.5776 15.2252 38.5055 16.217Z" fill="#D14A5E"/>
<path d="M33.5899 20.476C32.6181 20.4067 31.6873 20.0701 30.9152 19.5089C30.1431 18.9477 29.5644 18.1871 29.2522 17.3232C28.9401 16.4593 28.9085 15.5309 29.1615 14.6555C29.4145 13.78 29.9407 12.9968 30.6735 12.4049C31.4064 11.813 32.313 11.439 33.2788 11.3302C34.2445 11.2213 35.226 11.3825 36.099 11.7934C36.9721 12.2043 37.6976 12.8465 38.1837 13.6386C38.6699 14.4307 38.8948 15.3373 38.8302 16.2437C38.7419 17.4585 38.1407 18.5863 37.1583 19.3798C36.1759 20.1732 34.8926 20.5674 33.5899 20.476ZM34.1932 12.017C33.3713 11.9584 32.5515 12.1284 31.8377 12.5056C31.1239 12.8828 30.5481 13.4502 30.183 14.136C29.8179 14.8219 29.68 15.5954 29.7868 16.3587C29.8935 17.1221 30.24 17.841 30.7826 18.4245C31.3251 19.0081 32.0393 19.43 32.8348 19.6371C33.6303 19.8442 34.4714 19.827 35.2517 19.5878C36.032 19.3486 36.7165 18.8981 37.2187 18.2932C37.7208 17.6883 38.018 16.9563 38.0727 16.1897C38.1448 15.1619 37.7768 14.1454 37.0495 13.3631C36.3222 12.5808 35.295 12.0968 34.1932 12.017Z" fill="#323C6B"/>
<path d="M14.8846 24.6703C17.389 24.849 19.5543 23.1002 19.7209 20.7643C19.8875 18.4285 17.9924 16.39 15.4879 16.2114C12.9835 16.0328 10.8182 17.7816 10.6516 20.1174C10.485 22.4533 12.3801 24.4917 14.8846 24.6703Z" fill="#E2526D"/>
<path d="M19.716 20.7796C19.6682 21.4479 19.4516 22.0946 19.0839 22.667C18.7162 23.2393 18.2079 23.7211 17.6005 24.0729C17.8331 23.6146 17.9693 23.1181 18.0017 22.6102C18.0584 21.8295 17.8822 21.0472 17.4925 20.3501C17.1029 19.6531 16.515 19.0684 15.7942 18.6611C15.0734 18.2537 14.2477 18.0395 13.4088 18.0422C12.5699 18.045 11.7504 18.2646 11.0414 18.6766C11.4778 17.7732 12.2423 17.0449 13.201 16.6193C14.1598 16.1937 15.2517 16.0978 16.2857 16.3485C17.3197 16.5992 18.2299 17.1804 18.857 17.9905C19.4841 18.8005 19.7882 19.7878 19.716 20.7796Z" fill="#D14A5E"/>
<path d="M14.8594 25.0236C13.8876 24.9543 12.9568 24.6178 12.1847 24.0566C11.4126 23.4954 10.8339 22.7347 10.5217 21.8708C10.2096 21.0069 10.178 20.0785 10.431 19.2031C10.684 18.3276 11.2102 17.5445 11.9431 16.9526C12.6759 16.3607 13.5826 15.9867 14.5483 15.8778C15.514 15.769 16.4955 15.9302 17.3686 16.3411C18.2416 16.752 18.9671 17.3941 19.4533 18.1862C19.9394 18.9784 20.1644 19.8849 20.0997 20.7913C20.0115 22.0062 19.4102 23.134 18.4278 23.9274C17.4454 24.7208 16.1621 25.115 14.8594 25.0236ZM15.4627 16.5647C14.6408 16.5061 13.8211 16.6761 13.1072 17.0533C12.3934 17.4304 11.8176 17.9978 11.4525 18.6837C11.0874 19.3695 10.9495 20.143 11.0563 20.9063C11.163 21.6697 11.5095 22.3886 12.0521 22.9721C12.5946 23.5557 13.3088 23.9777 14.1043 24.1847C14.8998 24.3918 15.7409 24.3746 16.5212 24.1354C17.3016 23.8962 17.9861 23.4457 18.4882 22.8408C18.9903 22.236 19.2875 21.5039 19.3422 20.7373C19.4143 19.7095 19.0463 18.693 18.319 17.9107C17.5917 17.1285 16.5645 16.6444 15.4627 16.5647Z" fill="#323C6B"/>
<path d="M22.3522 25.2285C24.8566 25.4072 27.0219 23.6584 27.1886 21.3225C27.3552 18.9866 25.46 16.9482 22.9555 16.7696C20.4511 16.591 18.2858 18.3398 18.1192 20.6756C17.9526 23.0115 19.8478 25.0499 22.3522 25.2285Z" fill="#A583A2"/>
<path d="M27.1726 21.3114C27.1247 21.9798 26.9081 22.6265 26.5405 23.1988C26.1728 23.7712 25.6645 24.2529 25.057 24.6048C25.2897 24.1465 25.4259 23.65 25.4583 23.1421C25.515 22.3614 25.3387 21.5791 24.9491 20.882C24.5594 20.1849 23.9716 19.6003 23.2508 19.1929C22.5299 18.7855 21.7043 18.5714 20.8654 18.5741C20.0264 18.5769 19.207 18.7964 18.4979 19.2085C18.9344 18.305 19.6989 17.5768 20.6576 17.1512C21.6163 16.7256 22.7083 16.6297 23.7423 16.8804C24.7762 17.131 25.6865 17.7123 26.3136 18.5223C26.9407 19.3324 27.2448 20.3197 27.1726 21.3114Z" fill="#967895"/>
<path d="M22.3269 25.5825C21.3552 25.5132 20.4244 25.1767 19.6523 24.6155C18.8802 24.0543 18.3014 23.2936 17.9893 22.4297C17.6771 21.5658 17.6455 20.6374 17.8985 19.762C18.1515 18.8865 18.6777 18.1034 19.4106 17.5115C20.1435 16.9196 21.0501 16.5455 22.0158 16.4367C22.9816 16.3279 23.963 16.4891 24.8361 16.9C25.7092 17.3109 26.4347 17.953 26.9208 18.7451C27.407 19.5373 27.6319 20.4438 27.5673 21.3502C27.479 22.5651 26.8778 23.6929 25.8954 24.4863C24.913 25.2797 23.6297 25.6739 22.3269 25.5825ZM22.9303 17.1229C22.1084 17.0642 21.2887 17.2343 20.5748 17.6114C19.861 17.9886 19.2852 18.556 18.9201 19.2418C18.555 19.9277 18.4172 20.7012 18.5239 21.4645C18.6306 22.2279 18.9772 22.9468 19.5197 23.5303C20.0622 24.1139 20.7764 24.5359 21.5719 24.7429C22.3674 24.95 23.2085 24.9328 23.9888 24.6936C24.7692 24.4544 25.4537 24.0039 25.9558 23.399C26.4579 22.7942 26.7551 22.0621 26.8098 21.2955C26.8819 20.2677 26.5139 19.2512 25.7866 18.4689C25.0593 17.6867 24.0321 17.2026 22.9303 17.1229Z" fill="#323C6B"/>
<path d="M22.3522 25.2285C24.8566 25.4072 27.0219 23.6584 27.1886 21.3225C27.3552 18.9866 25.46 16.9482 22.9555 16.7696C20.4511 16.591 18.2858 18.3398 18.1192 20.6756C17.9526 23.0115 19.8478 25.0499 22.3522 25.2285Z" fill="#E2526D"/>
<path d="M27.1726 21.3114C27.1247 21.9798 26.9081 22.6265 26.5405 23.1988C26.1728 23.7712 25.6645 24.2529 25.057 24.6048C25.2897 24.1465 25.4259 23.65 25.4583 23.1421C25.515 22.3614 25.3387 21.5791 24.9491 20.882C24.5594 20.1849 23.9716 19.6003 23.2508 19.1929C22.5299 18.7855 21.7043 18.5714 20.8654 18.5741C20.0264 18.5769 19.207 18.7964 18.4979 19.2085C18.9344 18.305 19.6989 17.5768 20.6576 17.1512C21.6163 16.7256 22.7083 16.6297 23.7423 16.8804C24.7762 17.131 25.6865 17.7123 26.3136 18.5223C26.9407 19.3324 27.2448 20.3197 27.1726 21.3114Z" fill="#D14A5E"/>
<path d="M22.3269 25.5825C21.3552 25.5132 20.4244 25.1767 19.6523 24.6155C18.8802 24.0543 18.3014 23.2936 17.9893 22.4297C17.6771 21.5658 17.6455 20.6374 17.8985 19.762C18.1515 18.8865 18.6777 18.1034 19.4106 17.5115C20.1435 16.9196 21.0501 16.5455 22.0158 16.4367C22.9816 16.3279 23.963 16.4891 24.8361 16.9C25.7092 17.3109 26.4347 17.953 26.9208 18.7451C27.407 19.5373 27.6319 20.4438 27.5673 21.3502C27.479 22.5651 26.8778 23.6929 25.8954 24.4863C24.913 25.2797 23.6297 25.6739 22.3269 25.5825ZM22.9303 17.1229C22.1084 17.0642 21.2887 17.2343 20.5748 17.6114C19.861 17.9886 19.2852 18.556 18.9201 19.2418C18.555 19.9277 18.4172 20.7012 18.5239 21.4645C18.6306 22.2279 18.9772 22.9468 19.5197 23.5303C20.0622 24.1139 20.7764 24.5359 21.5719 24.7429C22.3674 24.95 23.2085 24.9328 23.9888 24.6936C24.7692 24.4544 25.4537 24.0039 25.9558 23.399C26.4579 22.7942 26.7551 22.0621 26.8098 21.2955C26.8819 20.2677 26.5139 19.2512 25.7866 18.4689C25.0593 17.6867 24.0321 17.2026 22.9303 17.1229Z" fill="#323C6B"/>
<path d="M29.9506 25.6285C32.4551 25.8071 34.6204 24.0583 34.787 21.7224C34.9536 19.3866 33.0584 17.3482 30.554 17.1695C28.0495 16.9909 25.8842 18.7397 25.7176 21.0756C25.551 23.4114 27.4462 25.4498 29.9506 25.6285Z" fill="#E2526D"/>
<path d="M34.9031 21.6853C34.8552 22.3536 34.6386 23.0003 34.2709 23.5727C33.9033 24.145 33.395 24.6268 32.7875 24.9786C33.0202 24.5203 33.1564 24.0238 33.1888 23.5159C33.2455 22.7352 33.0692 21.9529 32.6796 21.2558C32.2899 20.5588 31.7021 19.9741 30.9813 19.5668C30.2604 19.1594 29.4348 18.9452 28.5958 18.9479C27.7569 18.9507 26.9375 19.1703 26.2284 19.5823C26.6649 18.6789 27.4294 17.9506 28.3881 17.525C29.3468 17.0994 30.4387 17.0035 31.4727 17.2542C32.5067 17.5049 33.4169 18.0861 34.0441 18.8962C34.6712 19.7062 34.9753 20.6935 34.9031 21.6853Z" fill="#D14A5E"/>
<path d="M29.9262 25.9818C28.9544 25.9126 28.0235 25.5762 27.2513 25.0151C26.4791 24.454 25.9002 23.6934 25.588 22.8295C25.2757 21.9655 25.244 21.0371 25.4969 20.1616C25.7498 19.2862 26.276 18.5029 27.0088 17.9109C27.7417 17.319 28.6483 16.9449 29.614 16.836C30.5798 16.7271 31.5613 16.8882 32.4344 17.2991C33.3075 17.71 34.0331 18.3521 34.5192 19.1443C35.0054 19.9364 35.2304 20.843 35.1658 21.7495C35.0775 22.9642 34.4764 24.0919 33.4941 24.8853C32.5119 25.6787 31.2288 26.073 29.9262 25.9818ZM30.5296 17.5222C29.7076 17.4634 28.8878 17.6333 28.1739 18.0104C27.46 18.3874 26.884 18.9548 26.5188 19.6406C26.1537 20.3264 26.0157 21.0999 26.1223 21.8633C26.2289 22.6267 26.5754 23.3457 27.1179 23.9293C27.6604 24.5129 28.3746 24.935 29.1701 25.1421C29.9657 25.3492 30.8068 25.3321 31.5871 25.0929C32.3675 24.8537 33.052 24.4032 33.5542 23.7983C34.0564 23.1934 34.3536 22.4614 34.4083 21.6947C34.4804 20.6671 34.1125 19.6507 33.3854 18.8684C32.6582 18.0862 31.6312 17.602 30.5296 17.5222Z" fill="#323C6B"/>
<path d="M37.5231 26.1686C40.0275 26.3472 42.1928 24.5984 42.3594 22.2626C42.526 19.9267 40.6309 17.8883 38.1264 17.7096C35.622 17.531 33.4567 19.2798 33.2901 21.6157C33.1235 23.9515 35.0186 25.9899 37.5231 26.1686Z" fill="#E2526D"/>
<path d="M42.3509 22.35C42.3031 23.0183 42.0865 23.6651 41.7188 24.2374C41.3511 24.8097 40.8428 25.2915 40.2354 25.6434C40.468 25.185 40.6042 24.6886 40.6366 24.1807C40.6933 23.3999 40.5171 22.6177 40.1274 21.9206C39.7378 21.2235 39.1499 20.6389 38.4291 20.2315C37.7083 19.8241 36.8826 19.6099 36.0437 19.6127C35.2047 19.6154 34.3853 19.835 33.6763 20.2471C34.1127 19.3436 34.8772 18.6154 35.8359 18.1897C36.7947 17.7641 37.8866 17.6683 38.9206 17.9189C39.9546 18.1696 40.8648 18.7508 41.4919 19.5609C42.119 20.371 42.4231 21.3583 42.3509 22.35Z" fill="#D14A5E"/>
<path d="M37.4979 26.5219C36.5261 26.4526 35.5953 26.116 34.8232 25.5548C34.0511 24.9936 33.4724 24.233 33.1602 23.3691C32.8481 22.5052 32.8165 21.5768 33.0695 20.7014C33.3225 19.8259 33.8487 19.0427 34.5815 18.4508C35.3144 17.8589 36.221 17.4849 37.1868 17.3761C38.1525 17.2672 39.134 17.4284 40.007 17.8393C40.8801 18.2502 41.6056 18.8923 42.0917 19.6845C42.5779 20.4766 42.8029 21.3832 42.7382 22.2896C42.65 23.5044 42.0487 24.6322 41.0663 25.4256C40.0839 26.2191 38.8006 26.6133 37.4979 26.5219ZM38.1013 18.0622C37.2793 18.0036 36.4596 18.1736 35.7458 18.5508C35.032 18.928 34.4561 19.4954 34.091 20.1812C33.726 20.8671 33.5881 21.6406 33.6948 22.4039C33.8015 23.1672 34.1481 23.8861 34.6906 24.4697C35.2332 25.0532 35.9474 25.4752 36.7429 25.6823C37.5384 25.8894 38.3795 25.8722 39.1598 25.633C39.9401 25.3938 40.6246 24.9432 41.1267 24.3384C41.6288 23.7335 41.926 23.0015 41.9807 22.2348C42.0528 21.2071 41.6848 20.1905 40.9576 19.4083C40.2303 18.626 39.203 18.1419 38.1013 18.0622Z" fill="#323C6B"/>
<path d="M45.2523 26.7199C47.7568 26.8985 49.9221 25.1498 50.0887 22.8139C50.2553 20.478 48.3601 18.4396 45.8557 18.261C43.3513 18.0823 41.1859 19.8311 41.0193 22.167C40.8527 24.5029 42.7479 26.5413 45.2523 26.7199Z" fill="#E2526D"/>
<path d="M50.0947 22.8576C50.0469 23.5259 49.8303 24.1726 49.4626 24.745C49.0949 25.3173 48.5866 25.7991 47.9792 26.151C48.2118 25.6926 48.348 25.1962 48.3804 24.6883C48.4371 23.9075 48.2609 23.1253 47.8712 22.4282C47.4816 21.7311 46.8937 21.1465 46.1729 20.7391C45.4521 20.3317 44.6264 20.1175 43.7875 20.1203C42.9486 20.123 42.1291 20.3426 41.4201 20.7547C41.8565 19.8512 42.621 19.123 43.5797 18.6973C44.5385 18.2717 45.6304 18.1759 46.6644 18.4265C47.6984 18.6772 48.6086 19.2584 49.2357 20.0685C49.8628 20.8786 50.1669 21.8659 50.0947 22.8576Z" fill="#D14A5E"/>
<path d="M45.2271 27.0732C44.2554 27.0039 43.3246 26.6673 42.5525 26.1061C41.7804 25.5449 41.2016 24.7843 40.8895 23.9204C40.5773 23.0565 40.5457 22.1281 40.7987 21.2527C41.0517 20.3772 41.5779 19.594 42.3108 19.0021C43.0437 18.4102 43.9503 18.0362 44.916 17.9274C45.8818 17.8185 46.8632 17.9797 47.7363 18.3906C48.6094 18.8015 49.3349 19.4436 49.821 20.2358C50.3072 21.0279 50.5321 21.9345 50.4675 22.8409C50.3792 24.0557 49.778 25.1835 48.7956 25.9769C47.8132 26.7704 46.5299 27.1646 45.2271 27.0732ZM45.8305 18.6135C45.0086 18.5549 44.1889 18.7249 43.4751 19.1021C42.7612 19.4793 42.1854 20.0467 41.8203 20.7325C41.4552 21.4184 41.3174 22.1919 41.4241 22.9552C41.5308 23.7185 41.8774 24.4374 42.4199 25.021C42.9625 25.6045 43.6766 26.0265 44.4721 26.2336C45.2676 26.4407 46.1087 26.4235 46.889 26.1843C47.6694 25.9451 48.3539 25.4945 48.856 24.8897C49.3581 24.2848 49.6553 23.5528 49.71 22.7861C49.7821 21.7584 49.4141 20.7418 48.6868 19.9596C47.9595 19.1773 46.9323 18.6932 45.8305 18.6135Z" fill="#323C6B"/>
<path d="M32.889 33.1846C35.5374 33.3735 37.8271 31.5242 38.0033 29.0541C38.1795 26.584 36.1754 24.4285 33.527 24.2396C30.8787 24.0507 28.5889 25.8999 28.4127 28.37C28.2366 30.8402 30.2407 32.9957 32.889 33.1846Z" fill="#E2526D"/>
<path d="M36.9656 31.4756C36.4896 32.021 35.8809 32.4523 35.1893 32.7342C34.4978 33.0162 33.743 33.1408 32.9866 33.0978C33.4867 32.837 33.9279 32.4888 34.2863 32.072C34.8431 31.4354 35.1986 30.6655 35.3134 29.8477C35.4282 29.03 35.2978 28.1963 34.9367 27.439C34.5756 26.6818 33.9979 26.0306 33.2676 25.5576C32.5372 25.0846 31.6829 24.8084 30.7991 24.7594C31.7658 24.2326 32.9036 24.0417 34.0132 24.2203C35.1229 24.3988 36.1339 24.9354 36.869 25.7361C37.6041 26.5367 38.0166 27.5505 38.0343 28.5998C38.052 29.6491 37.6737 30.6671 36.9656 31.4756Z" fill="#D14A5E"/>
<path d="M32.8638 33.5379C31.8405 33.4649 30.8604 33.1105 30.0473 32.5196C29.2343 31.9287 28.6249 31.1277 28.2961 30.218C27.9674 29.3083 27.9341 28.3308 28.2004 27.4089C28.4668 26.487 29.0208 25.6623 29.7925 25.039C30.5642 24.4157 31.5188 24.0217 32.5357 23.907C33.5526 23.7923 34.5861 23.962 35.5055 24.3946C36.4249 24.8272 37.1889 25.5032 37.701 26.3373C38.213 27.1714 38.45 28.126 38.3821 29.0804C38.2894 30.3598 37.6564 31.5477 36.6219 32.3834C35.5873 33.219 34.2358 33.6342 32.8638 33.5379ZM33.5019 24.5921C32.6284 24.5298 31.7572 24.7105 30.9987 25.1113C30.2401 25.5121 29.6281 26.1151 29.2402 26.844C28.8522 27.5728 28.7057 28.3948 28.8191 29.206C28.9325 30.0172 29.3008 30.7812 29.8774 31.4013C30.4539 32.0215 31.2129 32.4699 32.0583 32.69C32.9037 32.91 33.7975 32.8918 34.6267 32.6376C35.456 32.3834 36.1834 31.9046 36.717 31.2618C37.2506 30.619 37.5664 29.8411 37.6246 29.0264C37.7008 27.9343 37.3097 26.8543 36.5368 26.0231C35.7639 25.192 34.6725 24.6776 33.5018 24.5928L33.5019 24.5921Z" fill="#323C6B"/>
<path d="M25.4181 32.6517C27.9225 32.8304 30.0878 31.0816 30.2544 28.7457C30.421 26.4098 28.5258 24.3714 26.0214 24.1928C23.517 24.0142 21.3517 25.7629 21.185 28.0988C21.0184 30.4347 22.9136 32.4731 25.4181 32.6517Z" fill="#E2526D"/>
<path d="M29.2434 31.3161C28.7506 31.799 28.1413 32.1652 27.4652 32.3848C26.7892 32.6043 26.0654 32.6711 25.3531 32.5796C25.8465 32.3671 26.2909 32.0681 26.6624 31.6987C27.2388 31.1349 27.6351 30.4316 27.8072 29.6668C27.9794 28.9019 27.9207 28.1054 27.6377 27.3655C27.3547 26.6257 26.8585 25.9714 26.204 25.4753C25.5495 24.9792 24.7624 24.6606 23.9299 24.5549C24.8852 24.1229 25.9762 24.0197 27.0119 24.2634C28.0477 24.5071 28.9622 25.0821 29.5956 25.8879C30.2289 26.6937 30.5406 27.6789 30.4763 28.6711C30.4119 29.6633 29.9755 30.5993 29.2435 31.3154L29.2434 31.3161Z" fill="#D14A5E"/>
<path d="M25.3936 33.005C24.4218 32.9359 23.4909 32.5995 22.7187 32.0383C21.9465 31.4772 21.3677 30.7166 21.0554 29.8527C20.7431 28.9888 20.7114 28.0604 20.9643 27.1849C21.2172 26.3094 21.7434 25.5261 22.4762 24.9342C23.2091 24.3422 24.1157 23.9681 25.0815 23.8592C26.0472 23.7503 27.0287 23.9115 27.9019 24.3224C28.775 24.7333 29.5005 25.3754 29.9867 26.1675C30.4729 26.9597 30.6978 27.8663 30.6332 28.7727C30.5449 29.9874 29.9438 31.1151 28.9616 31.9085C27.9794 32.7019 26.6963 33.0963 25.3936 33.005ZM25.997 24.5461C25.175 24.4873 24.3552 24.6572 23.6413 25.0343C22.9274 25.4114 22.3514 25.9787 21.9862 26.6646C21.621 27.3504 21.483 28.1239 21.5897 28.8873C21.6963 29.6507 22.0428 30.3696 22.5853 30.9533C23.1278 31.5369 23.842 31.9589 24.6375 32.1661C25.433 32.3732 26.2742 32.3561 27.0545 32.1169C27.8349 31.8777 28.5194 31.4272 29.0216 30.8223C29.5238 30.2174 29.821 29.4853 29.8756 28.7187C29.9477 27.691 29.5799 26.6746 28.8527 25.8924C28.1256 25.1102 27.0986 24.626 25.997 24.5461Z" fill="#323C6B"/>
<path d="M18.0759 31.3802C20.5804 31.5589 22.7457 29.8101 22.9123 27.4742C23.0789 25.1384 21.1837 23.0999 18.6793 22.9213C16.1748 22.7427 14.0095 24.4915 13.8429 26.8273C13.6763 29.1632 15.5715 31.2016 18.0759 31.3802Z" fill="#E2526D"/>
<path d="M18.356 31.3285C17.6379 31.3257 16.929 31.1646 16.2872 30.8581C15.6453 30.5517 15.0886 30.1087 14.6626 29.5652C15.1716 29.7532 15.7134 29.8489 16.2589 29.8474C17.098 29.8514 17.9196 29.6385 18.6326 29.2321C19.3455 28.8258 19.922 28.2419 20.2981 27.5453C20.6742 26.8488 20.8351 26.0666 20.7631 25.2857C20.6911 24.5048 20.3889 23.7557 19.8901 23.1213C20.8915 23.4711 21.7327 24.1372 22.2665 25.0031C22.8003 25.869 22.9926 26.8796 22.8098 27.8579C22.6271 28.8362 22.0808 29.7199 21.2667 30.3544C20.4527 30.9889 19.4226 31.3337 18.3568 31.3286L18.356 31.3285Z" fill="#967895"/>
<path d="M18.356 31.3285C17.6379 31.3257 16.929 31.1646 16.2872 30.8581C15.6453 30.5517 15.0886 30.1087 14.6626 29.5652C15.1716 29.7532 15.7134 29.8489 16.2589 29.8474C17.098 29.8514 17.9196 29.6385 18.6326 29.2321C19.3455 28.8258 19.922 28.2419 20.2981 27.5453C20.6742 26.8488 20.8351 26.0666 20.7631 25.2857C20.6911 24.5048 20.3889 23.7557 19.8901 23.1213C20.8915 23.4711 21.7327 24.1372 22.2665 25.0031C22.8003 25.869 22.9926 26.8796 22.8098 27.8579C22.6271 28.8362 22.0808 29.7199 21.2667 30.3544C20.4527 30.9889 19.4226 31.3337 18.3568 31.3286L18.356 31.3285Z" fill="#D14A5E"/>
<path d="M18.0507 31.7342C17.0789 31.6651 16.148 31.3286 15.3758 30.7675C14.6036 30.2064 14.0247 29.4458 13.7125 28.5819C13.4002 27.718 13.3685 26.7896 13.6214 25.9141C13.8743 25.0386 14.4005 24.2553 15.1333 23.6634C15.8662 23.0714 16.7728 22.6973 17.7386 22.5884C18.7043 22.4795 19.6858 22.6407 20.5589 23.0516C21.4321 23.4624 22.1576 24.1046 22.6438 24.8967C23.1299 25.6889 23.3549 26.5955 23.2903 27.5019C23.202 28.7166 22.6009 29.8443 21.6187 30.6377C20.6364 31.4311 19.3533 31.8255 18.0507 31.7342ZM18.6541 23.2753C17.8321 23.2165 17.0123 23.3864 16.2984 23.7635C15.5845 24.1406 15.0085 24.7079 14.6433 25.3938C14.2781 26.0796 14.1401 26.8531 14.2468 27.6165C14.3534 28.3799 14.6999 29.0988 15.2424 29.6824C15.7849 30.2661 16.4991 30.6881 17.2946 30.8952C18.0901 31.1024 18.9312 31.0853 19.7116 30.8461C20.492 30.6069 21.1765 30.1563 21.6787 29.5515C22.1808 28.9466 22.478 28.2145 22.5327 27.4479C22.605 26.4201 22.2373 25.4035 21.5101 24.6211C20.783 23.8388 19.7559 23.3545 18.6541 23.2746L18.6541 23.2753Z" fill="#323C6B"/>
<path d="M22.1121 38.6937C24.7604 38.8826 27.0502 37.0333 27.2264 34.5632C27.4025 32.0931 25.3984 29.9375 22.7501 29.7486C20.1017 29.5597 17.812 31.409 17.6358 33.8791C17.4596 36.3492 19.4637 38.5048 22.1121 38.6937Z" fill="#E2526D"/>
<path d="M22.8453 38.7999C22.0985 38.8238 21.3546 38.6822 20.6742 38.3868C19.9939 38.0914 19.3966 37.6506 18.9311 37.1005C19.4679 37.277 20.035 37.3565 20.6017 37.3347C21.4736 37.3078 22.3181 37.056 23.0416 36.6071C23.765 36.1582 24.3392 35.5299 24.7003 34.7917C25.0614 34.0535 25.1954 33.2344 25.0875 32.4251C24.9795 31.6159 24.6338 30.8481 24.0887 30.207C25.1438 30.5337 26.0458 31.1953 26.637 32.0758C27.2282 32.9564 27.4709 33.9998 27.3225 35.0237C27.1742 36.0475 26.6443 36.9865 25.8255 37.6763C25.0068 38.3661 23.9514 38.7628 22.844 38.797L22.8453 38.7999Z" fill="#D14A5E"/>
<path d="M22.0868 39.0477C21.0636 38.9744 20.0836 38.6198 19.2708 38.0287C18.458 37.4377 17.8488 36.6366 17.5203 35.7269C17.1918 34.8172 17.1587 33.8397 17.4252 32.918C17.6917 31.9962 18.2459 31.1716 19.0176 30.5484C19.7893 29.9253 20.744 29.5315 21.7608 29.4169C22.7777 29.3023 23.8111 29.4721 24.7304 29.9047C25.6497 30.3373 26.4136 31.0133 26.9256 31.8474C27.4376 32.6814 27.6746 33.6359 27.6066 34.5903C27.5139 35.87 26.8807 37.0581 25.8458 37.8937C24.8109 38.7294 23.459 39.1444 22.0868 39.0477ZM22.7249 30.1019C21.8514 30.0399 20.9804 30.2208 20.222 30.6218C19.4637 31.0229 18.8519 31.6259 18.4642 32.3548C18.0765 33.0837 17.9301 33.9057 18.0437 34.7168C18.1573 35.5279 18.5257 36.2918 19.1024 36.9118C19.679 37.5318 20.438 37.9801 21.2833 38.2C22.1287 38.42 23.0225 38.4017 23.8516 38.1474C24.6808 37.8931 25.4081 37.4143 25.9417 36.7716C26.4752 36.1288 26.791 35.3509 26.8491 34.5363C26.9256 33.4439 26.5343 32.3634 25.7611 31.5321C24.9879 30.7007 23.896 30.1864 22.7249 30.1019Z" fill="#323C6B"/>
<path d="M35.565 39.4026C38.2133 39.5915 40.5031 37.7422 40.6793 35.2721C40.8554 32.802 38.8514 30.6464 36.203 30.4575C33.5546 30.2686 31.2649 32.1179 31.0887 34.588C30.9125 37.0581 32.9166 39.2137 35.565 39.4026Z" fill="#E2526D"/>
<path d="M36.1655 39.309C35.4481 39.3318 34.7333 39.1958 34.0796 38.9122C33.4259 38.6286 32.8518 38.2055 32.4041 37.6773C32.9201 37.847 33.4651 37.9235 34.0098 37.9026C34.848 37.8767 35.6599 37.6345 36.3554 37.203C37.0509 36.7714 37.6028 36.1674 37.95 35.4577C38.2972 34.748 38.4261 33.9606 38.3223 33.1826C38.2185 32.4046 37.8862 31.6665 37.3622 31.0501C38.3768 31.3642 39.2443 32.0003 39.8128 32.8471C40.3812 33.6938 40.6144 34.6973 40.4716 35.6818C40.3288 36.6663 39.819 37.5691 39.0315 38.2322C38.244 38.8953 37.2289 39.2765 36.164 39.3089L36.1655 39.309Z" fill="#D14A5E"/>
<path d="M35.5374 39.7564C34.5141 39.6834 33.5339 39.329 32.7209 38.738C31.9078 38.1471 31.2984 37.3461 30.9697 36.4364C30.641 35.5266 30.6077 34.549 30.8742 33.6271C31.1406 32.7053 31.6947 31.8805 32.4664 31.2573C33.2382 30.634 34.1929 30.2401 35.2098 30.1255C36.2268 30.0109 37.2603 30.1806 38.1797 30.6133C39.0991 31.046 39.863 31.7222 40.3749 32.5563C40.8869 33.3905 41.1238 34.3452 41.0557 35.2996C40.9628 36.5789 40.3297 37.7666 39.2952 38.6021C38.2607 39.4376 36.9093 39.8527 35.5374 39.7564ZM36.1755 30.8106C35.302 30.7483 34.4309 30.929 33.6724 31.3298C32.9138 31.7306 32.3019 32.3335 31.9139 33.0623C31.5259 33.7911 31.3793 34.6131 31.4927 35.4243C31.6061 36.2354 31.9743 36.9994 32.5507 37.6196C33.1272 38.2397 33.8861 38.6882 34.7315 38.9084C35.5768 39.1285 36.4706 39.1104 37.2998 38.8563C38.1291 38.6022 38.8565 38.1235 39.3902 37.4808C39.9239 36.8381 40.2399 36.0602 40.2981 35.2456C40.3746 34.1533 39.9836 33.073 39.2107 32.2417C38.4379 31.4103 37.3464 30.8956 36.1755 30.8106Z" fill="#323C6B"/>
<path d="M40.2492 32.9639C42.8976 33.1528 45.1873 31.3035 45.3635 28.8334C45.5397 26.3633 43.5356 24.2078 40.8873 24.0189C38.2389 23.83 35.9491 25.6793 35.773 28.1494C35.5968 30.6195 37.6009 32.775 40.2492 32.9639Z" fill="#E2526D"/>
<path d="M43.4528 32.1258C42.8673 32.5086 42.1917 32.7558 41.4812 32.8473C40.7707 32.9388 40.0455 32.872 39.3646 32.6523C39.894 32.5344 40.3934 32.323 40.8359 32.0293C41.5205 31.5828 42.0573 30.9668 42.3868 30.2497C42.7164 29.5325 42.8257 28.7422 42.7028 27.9664C42.5798 27.1906 42.2293 26.4597 41.6903 25.8546C41.1512 25.2495 40.4445 24.7939 39.6487 24.5384C40.6775 24.291 41.7704 24.3898 42.7363 24.8176C43.7021 25.2453 44.4796 25.9748 44.9327 26.8786C45.3858 27.7823 45.4858 28.8028 45.2152 29.7617C44.9446 30.7205 44.3205 31.5568 43.4522 32.1243L43.4528 32.1258Z" fill="#D14A5E"/>
<path d="M40.224 33.3172C39.2007 33.2442 38.2205 32.8898 37.4075 32.2989C36.5944 31.7079 35.985 30.9069 35.6563 29.9972C35.3276 29.0875 35.2943 28.1098 35.5608 27.188C35.8272 26.2661 36.3813 25.4414 37.153 24.8181C37.9248 24.1948 38.8795 23.8009 39.8964 23.6863C40.9134 23.5717 41.9469 23.7415 42.8663 24.1742C43.7857 24.6068 44.5496 25.283 45.0615 26.1172C45.5735 26.9513 45.8104 27.906 45.7423 28.8604C45.6494 30.1397 45.0163 31.3274 43.9818 32.1629C42.9473 32.9984 41.5959 33.4135 40.224 33.3172ZM40.8621 24.3714C39.9886 24.3091 39.1175 24.4898 38.359 24.8906C37.6004 25.2914 36.9885 25.8943 36.6005 26.6231C36.2125 27.3519 36.0659 28.1739 36.1793 28.9851C36.2926 29.7963 36.6608 30.5602 37.2373 31.1804C37.8138 31.8006 38.5727 32.2491 39.418 32.4692C40.2634 32.6893 41.1572 32.6712 41.9864 32.4171C42.8157 32.163 43.5431 31.6843 44.0768 31.0416C44.6105 30.3989 44.9265 29.6211 44.9847 28.8064C45.0612 27.7142 44.6702 26.634 43.8973 25.8027C43.1244 24.9714 42.0329 24.457 40.862 24.3721L40.8621 24.3714Z" fill="#323C6B"/>
<path d="M32.7074 44.6754C35.3558 44.8643 37.6456 43.0151 37.8217 40.5449C37.9979 38.0748 35.9938 35.9193 33.3455 35.7304C30.6971 35.5415 28.4074 37.3908 28.2312 39.8609C28.055 42.331 30.0591 44.4865 32.7074 44.6754Z" fill="#E2526D"/>
<path d="M33.3357 44.6315C32.587 44.6558 31.841 44.5144 31.1587 44.2189C30.4763 43.9234 29.8769 43.4821 29.4094 42.9311C29.9479 43.1083 30.5167 43.1882 31.0852 43.1664C31.9608 43.14 32.809 42.8876 33.5357 42.4372C34.2623 41.9867 34.839 41.3559 35.2017 40.6146C35.5644 39.8734 35.6989 39.0508 35.5903 38.2382C35.4817 37.4256 35.1341 36.6548 34.5863 36.0113C35.6454 36.3389 36.5509 37.0027 37.1444 37.8863C37.7379 38.77 37.9815 39.8173 37.8326 40.8448C37.6837 41.8724 37.1518 42.8147 36.3299 43.5069C35.5081 44.199 34.4487 44.5969 33.3373 44.6309L33.3357 44.6315Z" fill="#D14A5E"/>
<path d="M32.6822 45.0294C31.6589 44.9564 30.6787 44.602 29.8657 44.0111C29.0526 43.4201 28.4432 42.6191 28.1145 41.7094C27.7858 40.7997 27.7525 39.8221 28.0189 38.9002C28.2853 37.9783 28.8395 37.1536 29.6112 36.5303C30.3829 35.907 31.3377 35.5132 32.3546 35.3985C33.3715 35.2839 34.4051 35.4537 35.3244 35.8864C36.2438 36.3191 37.0078 36.9952 37.5197 37.8294C38.0316 38.6635 38.2685 39.6182 38.2005 40.5727C38.1076 41.852 37.4745 43.0396 36.44 43.8751C35.4055 44.7106 34.0541 45.1258 32.6822 45.0294ZM33.3203 36.0837C32.4468 36.0214 31.5757 36.202 30.8172 36.6028C30.0586 37.0036 29.4466 37.6065 29.0587 38.3353C28.6707 39.0642 28.5241 39.8861 28.6375 40.6973C28.7508 41.5085 29.119 42.2725 29.6955 42.8926C30.272 43.5128 31.0309 43.9613 31.8762 44.1814C32.7216 44.4015 33.6153 44.3834 34.4446 44.1293C35.2739 43.8752 36.0013 43.3965 36.535 42.7538C37.0687 42.1111 37.3847 41.3333 37.4429 40.5186C37.5198 39.4262 37.129 38.3457 36.3561 37.5141C35.5832 36.6825 34.4914 36.1678 33.3203 36.083L33.3203 36.0837Z" fill="#323C6B"/>
<path d="M28.2077 49.6487C30.856 49.8376 33.1458 47.9883 33.322 45.5182C33.4981 43.0481 31.494 40.8925 28.8457 40.7036C26.1973 40.5147 23.9076 42.364 23.7314 44.8341C23.5552 47.3042 25.5593 49.4598 28.2077 49.6487Z" fill="#E2526D"/>
<path d="M28.8783 49.5758C28.1416 49.5994 27.4075 49.4599 26.7362 49.1688C26.0649 48.8776 25.4753 48.4431 25.0157 47.9006C25.5455 48.0748 26.1051 48.1533 26.6644 48.1318C27.5252 48.1052 28.3589 47.8566 29.0732 47.4134C29.7874 46.9702 30.3542 46.3498 30.7107 45.621C31.0672 44.8922 31.1995 44.0835 31.0929 43.2846C30.9863 42.4856 30.645 41.7276 30.1068 41.0947C31.1486 41.4172 32.0394 42.0703 32.6231 42.9397C33.2069 43.809 33.4466 44.8393 33.3001 45.8502C33.1537 46.8611 32.6305 47.7882 31.8222 48.4693C31.0138 49.1504 29.9717 49.5421 28.8783 49.5758Z" fill="#D14A5E"/>
<path d="M28.1825 50.0019C27.1591 49.929 26.179 49.5746 25.3659 48.9836C24.5529 48.3927 23.9435 47.5917 23.6147 46.6819C23.286 45.7722 23.2528 44.7946 23.5192 43.8727C23.7856 42.9508 24.3397 42.1261 25.1114 41.5028C25.8832 40.8795 26.8379 40.4857 27.8549 40.3711C28.8718 40.2565 29.9053 40.4262 30.8247 40.8589C31.7441 41.2916 32.508 41.9678 33.02 42.8019C33.5319 43.6361 33.7688 44.5907 33.7007 45.5452C33.6079 46.8245 32.9747 48.0122 31.9402 48.8477C30.9057 49.6832 29.5543 50.0983 28.1825 50.0019ZM28.8205 41.0562C27.9471 40.9939 27.076 41.1746 26.3174 41.5754C25.5589 41.9762 24.9469 42.5791 24.5589 43.3079C24.1709 44.0367 24.0244 44.8587 24.1377 45.6698C24.2511 46.481 24.6193 47.245 25.1958 47.8652C25.7723 48.4853 26.5312 48.9338 27.3765 49.154C28.2218 49.3741 29.1156 49.3559 29.9449 49.1018C30.7741 48.8477 31.5016 48.3691 32.0353 47.7264C32.569 47.0837 32.8849 46.3058 32.9432 45.4912C33.0197 44.3989 32.6286 43.3186 31.8558 42.4872C31.0829 41.6558 29.9914 41.1412 28.8205 41.0562Z" fill="#323C6B"/>
<path d="M65.1035 18.1846C65.1035 18.585 65.0449 18.9609 64.9277 19.3125C64.8203 19.6543 64.6689 19.9521 64.4736 20.2061C64.2881 20.4502 64.0635 20.6455 63.7998 20.792C63.5459 20.9287 63.2676 20.9971 62.9648 20.9971C62.6621 20.9971 62.3789 20.9482 62.1152 20.8506C61.8613 20.7432 61.6367 20.6064 61.4414 20.4404C61.2461 20.2646 61.0898 20.0645 60.9726 19.8398C60.8652 19.6055 60.8115 19.3613 60.8115 19.1074C60.8115 19.0879 60.8115 19.0244 60.8115 18.917C60.8213 18.7998 60.8457 18.6582 60.8848 18.4922C60.9238 18.3164 60.9775 18.1309 61.0459 17.9355C61.124 17.7305 61.2363 17.5303 61.3828 17.335C60.9043 17.335 60.5283 17.4521 60.2549 17.6865C59.9814 17.9209 59.7764 18.2432 59.6396 18.6533C59.5127 19.0537 59.4297 19.5322 59.3906 20.0889C59.3613 20.6357 59.3467 21.2217 59.3467 21.8467V22.916C59.9326 22.916 60.5185 22.9014 61.1045 22.8721C61.7002 22.833 62.3008 22.7891 62.9062 22.7402L62.7305 26.2266C62.1738 26.1582 61.6123 26.1094 61.0459 26.0801C60.4795 26.0508 59.9131 26.0264 59.3467 26.0068C59.3467 27.1299 59.3515 28.248 59.3613 29.3613C59.3711 30.4746 59.3808 31.5391 59.3906 32.5547C59.4004 33.5703 59.4053 34.5176 59.4053 35.3965C59.415 36.2656 59.4199 37.0225 59.4199 37.667C59.4297 38.3018 59.4346 38.7998 59.4346 39.1611C59.4346 39.5322 59.4346 39.7178 59.4346 39.7178L56.0947 39.8936C56.1435 39.1904 56.1777 38.4092 56.1973 37.5498C56.2168 36.6807 56.2265 35.7627 56.2265 34.7959C56.2265 34.083 56.2217 33.3555 56.2119 32.6133C56.2021 31.8613 56.1875 31.1143 56.168 30.3721C56.1484 29.6201 56.1289 28.8828 56.1094 28.1602C56.0898 27.4375 56.0752 26.7393 56.0654 26.0654C55.7627 26.085 55.4648 26.1094 55.1719 26.1387C54.8887 26.1582 54.5957 26.1875 54.293 26.2266L54.1465 22.7402C54.4492 22.7695 54.7568 22.7988 55.0693 22.8281C55.3818 22.8477 55.6943 22.8672 56.0068 22.8867V21.2461C56.0068 20.2988 56.0996 19.4395 56.2851 18.668C56.4805 17.8867 56.7832 17.2178 57.1933 16.6611C57.6133 16.1045 58.1504 15.6748 58.8047 15.3721C59.4687 15.0596 60.2695 14.9033 61.207 14.9033C61.8515 14.9033 62.418 15.001 62.9062 15.1963C63.3945 15.3916 63.7998 15.6504 64.1221 15.9727C64.4443 16.2852 64.6885 16.6367 64.8545 17.0273C65.0205 17.418 65.1035 17.8037 65.1035 18.1846ZM67.6523 39.6006L63.7412 39.8936C63.8974 38.1455 64.0098 36.4609 64.0781 34.8398C64.1562 33.209 64.1953 31.5781 64.1953 29.9473C64.1953 28.7949 64.1758 27.6426 64.1367 26.4902C64.1074 25.3281 64.0488 24.1367 63.9609 22.916L67.2568 22.7402C67.2373 22.9551 67.2226 23.165 67.2129 23.3701C67.2031 23.5752 67.1982 23.7754 67.1982 23.9707C67.54 23.4434 67.9111 23.0332 68.3115 22.7402C68.7217 22.4375 69.1025 22.2178 69.4541 22.0811C69.8545 21.915 70.2598 21.8125 70.6699 21.7734C71.3828 21.7734 71.9931 21.8857 72.501 22.1104C73.0088 22.3252 73.4238 22.6084 73.7461 22.96C74.0683 23.3018 74.3027 23.6875 74.4492 24.1172C74.5957 24.5371 74.6689 24.9473 74.6689 25.3477C74.6689 25.7578 74.625 26.1729 74.5371 26.5928C74.4492 27.0127 74.2978 27.3936 74.083 27.7354C73.8779 28.0674 73.5996 28.3408 73.248 28.5557C72.9062 28.7607 72.4814 28.8633 71.9736 28.8633C71.4658 28.8633 71.0654 28.7705 70.7724 28.585C70.4795 28.3994 70.2549 28.1797 70.0986 27.9258C69.9521 27.6621 69.8545 27.3936 69.8056 27.1201C69.7666 26.8369 69.7471 26.5977 69.7471 26.4023C69.7471 26.2656 69.7715 26.1143 69.8203 25.9482C69.8691 25.7725 69.9424 25.5967 70.04 25.4209C70.1377 25.2451 70.2598 25.0742 70.4062 24.9082C70.5527 24.7324 70.7236 24.5713 70.9189 24.4248C70.8603 24.4053 70.7969 24.3906 70.7285 24.3809C70.6699 24.3711 70.6113 24.3662 70.5527 24.3662C70.0644 24.3662 69.6299 24.5225 69.249 24.835C68.8681 25.1377 68.5361 25.5625 68.2529 26.1094C67.9795 26.6562 67.75 27.3008 67.5644 28.043C67.3887 28.7852 67.2568 29.5957 67.1689 30.4746C67.2178 31.9883 67.2861 33.4873 67.374 34.9717C67.4619 36.4561 67.5547 37.999 67.6523 39.6006ZM83.0185 39.1465C83.0381 38.7559 83.0576 38.3848 83.0771 38.0332C83.1064 37.6719 83.1357 37.3252 83.165 36.9932C82.833 37.5791 82.4765 38.0283 82.0957 38.3408C81.7246 38.6533 81.3779 38.8877 81.0556 39.0439C80.6748 39.2197 80.2988 39.3271 79.9277 39.3662C79.2051 39.3662 78.5752 39.1855 78.0381 38.8242C77.501 38.4629 77.0566 37.9502 76.7051 37.2861C76.3535 36.6221 76.0898 35.8262 75.914 34.8984C75.748 33.9609 75.665 32.916 75.665 31.7637C75.665 30.1523 75.7139 28.5898 75.8115 27.0762C75.9189 25.5625 76.0898 24.0781 76.3242 22.623L80.0449 23.0332C79.8105 24.1953 79.6299 25.2354 79.5029 26.1533C79.3857 27.0615 79.2978 27.8379 79.2392 28.4824C79.1709 29.2344 79.1318 29.8887 79.1221 30.4453C79.1221 31.373 79.1514 32.1836 79.2099 32.877C79.2685 33.5605 79.3711 34.1318 79.5176 34.5908C79.6738 35.04 79.8838 35.377 80.1474 35.6016C80.4111 35.8262 80.748 35.9385 81.1582 35.9385C81.4414 35.8896 81.7197 35.6943 81.9931 35.3525C82.1103 35.2061 82.2324 35.0205 82.3594 34.7959C82.4863 34.5615 82.6133 34.2783 82.7402 33.9463C82.8672 33.6143 82.9892 33.2236 83.1064 32.7744C83.2236 32.3252 83.3359 31.8027 83.4433 31.207C83.4629 30.6309 83.4726 30.0596 83.4726 29.4932C83.4726 28.917 83.4726 28.2969 83.4726 27.6328C83.4726 26.9297 83.4726 26.1631 83.4726 25.333C83.4726 24.5029 83.4629 23.5703 83.4433 22.5352L86.7685 22.5938C86.7197 23.3359 86.6806 24.0244 86.6514 24.6592C86.6221 25.2842 86.5976 25.875 86.5781 26.4316C86.5683 26.9785 86.5586 27.4961 86.5488 27.9844C86.539 28.4727 86.5342 28.9463 86.5342 29.4053C86.5342 30.1084 86.539 30.7969 86.5488 31.4707C86.5683 32.1445 86.5928 32.8623 86.6221 33.624C86.6514 34.376 86.6806 35.2061 86.7099 36.1143C86.749 37.0127 86.7881 38.043 86.8271 39.2051L83.0185 39.1465ZM93.0234 18.4482C93.0234 18.7607 92.9648 19.0586 92.8476 19.3418C92.7305 19.6152 92.5693 19.8545 92.3642 20.0596C92.1592 20.2646 91.915 20.4307 91.6318 20.5576C91.3584 20.6748 91.0654 20.7334 90.7529 20.7334C90.4404 20.7334 90.1426 20.6748 89.8594 20.5576C89.5859 20.4307 89.3467 20.2646 89.1416 20.0596C88.9365 19.8545 88.7705 19.6152 88.6435 19.3418C88.5264 19.0586 88.4678 18.7607 88.4678 18.4482C88.4678 18.1357 88.5264 17.8428 88.6435 17.5693C88.7705 17.2861 88.9365 17.042 89.1416 16.8369C89.3467 16.6318 89.5859 16.4707 89.8594 16.3535C90.1426 16.2266 90.4404 16.1631 90.7529 16.1631C91.0654 16.1631 91.3584 16.2266 91.6318 16.3535C91.915 16.4707 92.1592 16.6318 92.3642 16.8369C92.5693 17.042 92.7305 17.2861 92.8476 17.5693C92.9648 17.8428 93.0234 18.1357 93.0234 18.4482ZM93.0234 22.8867C92.9453 23.6582 92.8769 24.4932 92.8183 25.3916C92.7695 26.2803 92.7256 27.1934 92.6865 28.1309C92.6572 29.0684 92.6328 30.0107 92.6133 30.958C92.5937 31.9053 92.5791 32.8086 92.5693 33.668C92.5596 34.5273 92.5498 35.333 92.54 36.085C92.54 36.8271 92.54 37.4668 92.54 38.0039V39.6592L89.2148 39.7764C89.2344 39.1025 89.2441 38.4482 89.2441 37.8135C89.2441 37.1787 89.2441 36.5439 89.2441 35.9092C89.2441 34.8057 89.2344 33.7314 89.2148 32.6865C89.1953 31.6318 89.1611 30.5771 89.1123 29.5225C89.0732 28.4678 89.0195 27.3984 88.9512 26.3145C88.8828 25.2305 88.7998 24.1074 88.7021 22.9453L93.0234 22.8867ZM100.113 16.7344C100.035 17.7402 99.9717 18.7314 99.9228 19.708C99.874 20.6748 99.8252 21.6465 99.7764 22.623C100.206 22.6035 100.631 22.5889 101.051 22.5791C101.471 22.5596 101.9 22.5352 102.34 22.5059L102.398 26.2559C101.93 26.1777 101.466 26.1143 101.007 26.0654C100.548 26.0166 100.099 25.9775 99.6592 25.9482C99.6299 26.7783 99.6103 27.5986 99.6006 28.4092C99.6006 29.2197 99.6006 30.04 99.6006 30.8701C99.6006 32.3545 99.6152 33.8291 99.6445 35.2939C99.6836 36.7588 99.7422 38.2334 99.8203 39.7178L95.9971 39.6592C96.124 37.3643 96.2265 35.0742 96.3047 32.7891C96.3926 30.4941 96.4512 28.1846 96.4805 25.8604C96.0703 25.8799 95.6601 25.9043 95.25 25.9336C94.8398 25.9531 94.4199 25.9775 93.9902 26.0068L94.1074 22.5352C94.5078 22.5645 94.9033 22.5889 95.2939 22.6084C95.6943 22.6182 96.0898 22.6328 96.4805 22.6523C96.4805 21.6758 96.4707 20.7041 96.4512 19.7373C96.4316 18.7607 96.4121 17.7793 96.3926 16.793L100.113 16.7344ZM110.528 39.6006C110.47 39.2979 110.416 38.9902 110.367 38.6777C110.318 38.3652 110.279 38.043 110.25 37.7109C109.801 38.375 109.264 38.8828 108.639 39.2344C108.014 39.5957 107.33 39.7764 106.588 39.7764C106.207 39.7764 105.816 39.7129 105.416 39.5859C105.016 39.4688 104.649 39.2588 104.317 38.9561C103.995 38.6533 103.727 38.2432 103.512 37.7256C103.307 37.1982 103.204 36.5342 103.204 35.7334C103.204 35.0693 103.302 34.4932 103.497 34.0049C103.692 33.5068 103.946 33.0723 104.259 32.7012C104.571 32.3301 104.923 32.0078 105.313 31.7344C105.704 31.4609 106.09 31.2168 106.471 31.002C106.861 30.7871 107.232 30.5869 107.584 30.4014C107.936 30.2158 108.224 30.0303 108.448 29.8447C108.878 29.5029 109.249 29.1416 109.562 28.7607C109.884 28.3701 110.143 27.9648 110.338 27.5449C110.299 26.8711 110.226 26.3193 110.118 25.8896C110.02 25.4502 109.889 25.1035 109.723 24.8496C109.557 24.5859 109.352 24.4053 109.107 24.3076C108.873 24.2002 108.604 24.1465 108.302 24.1465C107.853 24.1465 107.472 24.2441 107.159 24.4395C106.856 24.6348 106.607 24.8691 106.412 25.1426C106.656 25.2988 106.842 25.4648 106.969 25.6406C107.105 25.8164 107.208 25.9873 107.276 26.1533C107.354 26.3389 107.398 26.5293 107.408 26.7246C107.408 27.3887 107.218 27.8965 106.837 28.248C106.466 28.5996 105.987 28.7754 105.401 28.7754C105.099 28.7754 104.82 28.707 104.566 28.5703C104.312 28.4238 104.088 28.2236 103.893 27.9697C103.707 27.7158 103.561 27.4131 103.453 27.0615C103.346 26.71 103.292 26.3291 103.292 25.9189C103.292 25.5088 103.385 25.0742 103.57 24.6152C103.756 24.1562 104.054 23.7314 104.464 23.3408C104.874 22.9404 105.401 22.6133 106.046 22.3594C106.69 22.0957 107.472 21.9639 108.39 21.9639C109.308 21.9639 110.094 22.1445 110.748 22.5059C111.402 22.8574 111.939 23.3311 112.359 23.9268C112.779 24.5127 113.082 25.1914 113.268 25.9629C113.463 26.7344 113.561 27.5303 113.561 28.3506C113.561 28.9658 113.556 29.6348 113.546 30.3574C113.536 31.0801 113.531 31.8223 113.531 32.584C113.531 33.2188 113.536 33.8535 113.546 34.4883C113.556 35.123 113.575 35.7383 113.604 36.334C113.634 36.9199 113.673 37.4766 113.722 38.0039C113.77 38.5215 113.834 38.9854 113.912 39.3955L110.528 39.6006ZM110.309 31.0166C109.967 31.4268 109.601 31.7783 109.21 32.0713C108.917 32.2764 108.6 32.5059 108.258 32.7598C107.926 33.0137 107.613 33.2822 107.32 33.5654C107.037 33.8486 106.798 34.1465 106.603 34.459C106.417 34.7617 106.324 35.0742 106.324 35.3965C106.324 35.8359 106.432 36.2119 106.646 36.5244C106.861 36.8369 107.164 36.9932 107.555 36.9932C107.916 36.9932 108.238 36.8955 108.521 36.7002C108.805 36.5049 109.054 36.2656 109.269 35.9824C109.493 35.6895 109.679 35.377 109.825 35.0449C109.981 34.7129 110.104 34.4102 110.191 34.1367L110.309 31.0166ZM125.836 39.9229C125.133 39.9033 124.469 39.8936 123.844 39.8936C123.219 39.8936 122.633 39.8936 122.086 39.8936C120.973 39.8936 120.016 39.9033 119.215 39.9229C118.424 39.9521 117.765 39.9766 117.237 39.9961C116.632 40.0254 116.119 40.0547 115.699 40.084C115.768 39.4297 115.826 38.7656 115.875 38.0918C115.934 37.418 115.982 36.7539 116.021 36.0996C116.061 35.4453 116.095 34.8105 116.124 34.1953C116.153 33.5801 116.178 32.999 116.197 32.4521C116.236 31.1826 116.261 29.957 116.27 28.7754C116.261 27.6035 116.236 26.4023 116.197 25.1719C116.178 24.6445 116.153 24.0928 116.124 23.5166C116.095 22.9307 116.061 22.335 116.021 21.7295C115.982 21.124 115.934 20.5186 115.875 19.9131C115.826 19.2979 115.768 18.7021 115.699 18.126L120.02 17.9062C119.835 20.1133 119.708 22.2422 119.64 24.293C119.571 26.334 119.537 28.2188 119.537 29.9473C119.537 31.6074 119.552 33.0283 119.581 34.21C119.62 35.3916 119.654 36.29 119.684 36.9053H119.742C120.504 36.9053 121.246 36.8467 121.969 36.7295C122.701 36.6123 123.355 36.4805 123.932 36.334C124.605 36.168 125.24 35.9775 125.836 35.7627C125.826 35.8701 125.821 36.0068 125.821 36.1729C125.812 36.3096 125.807 36.4902 125.807 36.7148C125.807 36.9297 125.807 37.1934 125.807 37.5059C125.807 37.8184 125.807 38.1748 125.807 38.5752C125.807 38.9658 125.816 39.415 125.836 39.9229ZM131.285 18.4482C131.285 18.7607 131.227 19.0586 131.109 19.3418C130.992 19.6152 130.831 19.8545 130.626 20.0596C130.421 20.2646 130.177 20.4307 129.894 20.5576C129.62 20.6748 129.327 20.7334 129.015 20.7334C128.702 20.7334 128.404 20.6748 128.121 20.5576C127.848 20.4307 127.608 20.2646 127.403 20.0596C127.198 19.8545 127.032 19.6152 126.905 19.3418C126.788 19.0586 126.729 18.7607 126.729 18.4482C126.729 18.1357 126.788 17.8428 126.905 17.5693C127.032 17.2861 127.198 17.042 127.403 16.8369C127.608 16.6318 127.848 16.4707 128.121 16.3535C128.404 16.2266 128.702 16.1631 129.015 16.1631C129.327 16.1631 129.62 16.2266 129.894 16.3535C130.177 16.4707 130.421 16.6318 130.626 16.8369C130.831 17.042 130.992 17.2861 131.109 17.5693C131.227 17.8428 131.285 18.1357 131.285 18.4482ZM131.285 22.8867C131.207 23.6582 131.139 24.4932 131.08 25.3916C131.031 26.2803 130.987 27.1934 130.948 28.1309C130.919 29.0684 130.895 30.0107 130.875 30.958C130.855 31.9053 130.841 32.8086 130.831 33.668C130.821 34.5273 130.812 35.333 130.802 36.085C130.802 36.8271 130.802 37.4668 130.802 38.0039V39.6592L127.477 39.7764C127.496 39.1025 127.506 38.4482 127.506 37.8135C127.506 37.1787 127.506 36.5439 127.506 35.9092C127.506 34.8057 127.496 33.7314 127.477 32.6865C127.457 31.6318 127.423 30.5771 127.374 29.5225C127.335 28.4678 127.281 27.3984 127.213 26.3145C127.145 25.2305 127.062 24.1074 126.964 22.9453L131.285 22.8867ZM138.375 16.7344C138.297 17.7402 138.233 18.7314 138.185 19.708C138.136 20.6748 138.087 21.6465 138.038 22.623C138.468 22.6035 138.893 22.5889 139.312 22.5791C139.732 22.5596 140.162 22.5352 140.602 22.5059L140.66 26.2559C140.191 26.1777 139.728 26.1143 139.269 26.0654C138.81 26.0166 138.36 25.9775 137.921 25.9482C137.892 26.7783 137.872 27.5986 137.862 28.4092C137.862 29.2197 137.862 30.04 137.862 30.8701C137.862 32.3545 137.877 33.8291 137.906 35.2939C137.945 36.7588 138.004 38.2334 138.082 39.7178L134.259 39.6592C134.386 37.3643 134.488 35.0742 134.566 32.7891C134.654 30.4941 134.713 28.1846 134.742 25.8604C134.332 25.8799 133.922 25.9043 133.512 25.9336C133.102 25.9531 132.682 25.9775 132.252 26.0068L132.369 22.5352C132.77 22.5645 133.165 22.5889 133.556 22.6084C133.956 22.6182 134.352 22.6328 134.742 22.6523C134.742 21.6758 134.732 20.7041 134.713 19.7373C134.693 18.7607 134.674 17.7793 134.654 16.793L138.375 16.7344ZM153.141 23.1943C153.082 23.7705 153.033 24.3564 152.994 24.9521C152.955 25.5381 152.916 26.124 152.877 26.71C152.848 27.2959 152.818 27.8672 152.789 28.4238C152.76 28.9707 152.735 29.4932 152.716 29.9912C152.667 31.1533 152.628 32.2764 152.599 33.3604C152.54 34.5127 152.506 35.6553 152.496 36.7881C152.496 37.9111 152.462 38.9805 152.394 39.9961C152.325 41.0215 152.193 41.9688 151.998 42.8379C151.812 43.7168 151.505 44.4736 151.075 45.1084C150.645 45.7529 150.064 46.2559 149.332 46.6172C148.609 46.9785 147.677 47.1592 146.534 47.1592C145.675 47.1592 144.986 47.0322 144.469 46.7783C143.961 46.5342 143.57 46.2314 143.297 45.8701C143.023 45.5186 142.843 45.1426 142.755 44.7422C142.677 44.3418 142.638 43.9854 142.638 43.6729C142.638 43.3408 142.687 43.0283 142.784 42.7354C142.892 42.4521 143.038 42.2031 143.224 41.9883C143.409 41.7734 143.634 41.6025 143.897 41.4756C144.171 41.3486 144.479 41.2852 144.82 41.2852C145.182 41.2852 145.504 41.3535 145.787 41.4902C146.07 41.627 146.305 41.8027 146.49 42.0176C146.686 42.2422 146.832 42.4912 146.93 42.7646C147.027 43.0381 147.076 43.3115 147.076 43.585C147.066 43.7412 147.032 43.9023 146.974 44.0684C146.925 44.2051 146.837 44.3564 146.71 44.5225C146.593 44.6982 146.427 44.8691 146.212 45.0352C146.329 45.084 146.437 45.1133 146.534 45.123C146.642 45.1426 146.744 45.1523 146.842 45.1523C147.096 45.1523 147.359 45.0742 147.633 44.918C147.916 44.7715 148.175 44.5371 148.409 44.2148C148.644 43.8926 148.839 43.4873 148.995 42.999C149.151 42.5107 149.239 41.9297 149.259 41.2559C149.259 40.5234 149.259 39.8057 149.259 39.1025C149.269 38.3994 149.283 37.623 149.303 36.7734C148.971 37.4082 148.614 37.9014 148.233 38.2529C147.853 38.5947 147.491 38.8486 147.149 39.0146C146.759 39.21 146.363 39.3271 145.963 39.3662C145.24 39.3662 144.61 39.1855 144.073 38.8242C143.536 38.4629 143.092 37.9502 142.74 37.2861C142.389 36.6221 142.125 35.8262 141.949 34.8984C141.783 33.9609 141.7 32.916 141.7 31.7637C141.7 28.5703 141.92 25.5234 142.359 22.623L146.08 23.0332C146.002 23.3555 145.924 23.707 145.846 24.0879C145.777 24.4688 145.714 24.8643 145.655 25.2744C145.597 25.6846 145.543 26.0996 145.494 26.5195C145.455 26.9297 145.416 27.3252 145.377 27.7061C145.289 28.6045 145.216 29.5176 145.157 30.4453C145.157 31.373 145.187 32.1836 145.245 32.877C145.304 33.5605 145.406 34.1318 145.553 34.5908C145.709 35.04 145.919 35.377 146.183 35.6016C146.446 35.8262 146.783 35.9385 147.193 35.9385C147.486 35.8896 147.77 35.6846 148.043 35.3232C148.16 35.167 148.282 34.9717 148.409 34.7373C148.536 34.5029 148.663 34.2148 148.79 33.873C148.917 33.5312 149.039 33.1309 149.156 32.6719C149.273 32.2031 149.381 31.6611 149.479 31.0459C149.508 30.2842 149.527 29.5908 149.537 28.9658C149.557 28.3311 149.566 27.7256 149.566 27.1494C149.566 26.4561 149.552 25.792 149.522 25.1572C149.493 24.5127 149.449 23.8389 149.391 23.1357L153.141 23.1943Z" fill="#5E5E5E"/>
</svg>
