<svg width="20" height="20" viewBox="0 0 20 20" fill="none" xmlns="http://www.w3.org/2000/svg">
<path d="M11.5401 20H8.00014C7.75014 20 7.54014 19.82 7.50014 19.58L7.13014 16.93C6.50014 16.68 5.96014 16.34 5.44014 15.94L2.95014 16.95C2.73014 17.03 2.46014 16.95 2.34014 16.73L0.340137 13.27C0.278932 13.167 0.257355 13.0452 0.279441 12.9274C0.301527 12.8096 0.365763 12.7039 0.460137 12.63L2.57014 10.97L2.50014 10L2.57014 9L0.460137 7.37C0.365763 7.29613 0.301527 7.19042 0.279441 7.07263C0.257355 6.95484 0.278932 6.83304 0.340137 6.73L2.34014 3.27C2.46014 3.05 2.73014 2.96 2.95014 3.05L5.44014 4.05C5.96014 3.66 6.50014 3.32 7.13014 3.07L7.50014 0.42C7.54014 0.18 7.75014 0 8.00014 0H12.0001C12.2501 0 12.4601 0.18 12.5001 0.42L12.8701 3.07C13.5001 3.32 14.0401 3.66 14.5601 4.05L17.0501 3.05C17.2701 2.96 17.5401 3.05 17.6601 3.27L19.6601 6.73C19.7901 6.95 19.7301 7.22 19.5401 7.37L17.4301 9L17.5001 10V10.19C17.0001 10.07 16.5001 10 16.0001 10C15.8301 10 15.6601 10 15.5001 10.03C15.5001 9.41 15.4001 8.79 15.2001 8.2L17.3101 6.65L16.5601 5.35L14.1501 6.39C13.3644 5.48032 12.2985 4.85767 11.1201 4.62L10.7501 2H9.25014L8.88014 4.61C7.68014 4.86 6.62014 5.5 5.85014 6.39L3.44014 5.35L2.69014 6.65L4.80014 8.2C4.40014 9.36667 4.40014 10.6333 4.80014 11.8L2.68014 13.36L3.43014 14.66L5.86014 13.62C6.63014 14.5 7.68014 15.14 8.87014 15.38L9.24014 18H10.3501C10.6101 18.75 11.0001 19.42 11.5401 20ZM10.3601 13.96C10.2401 14 10.1201 14 10.0001 14C7.79014 14 6.00014 12.21 6.00014 10C6.00014 7.79 7.79014 6 10.0001 6C12.2101 6 14.0001 7.79 14.0001 10C14.0001 10.12 14.0001 10.24 13.9601 10.36C13.1344 10.6621 12.3844 11.1408 11.7627 11.7625C11.1409 12.3843 10.6623 13.1342 10.3601 13.96ZM12.0001 10C12.0001 8.9 11.1101 8 10.0001 8C8.89014 8 8.00014 8.9 8.00014 10C8.00014 11.1 8.90014 12 10.0001 12C11.1001 12 12.0001 11.11 12.0001 10ZM17.0001 13H19.0001V19H17.0001M13.0001 13H15.0001V19H13.0001V13Z" fill="black"/>
</svg>
